<svg width="257" height="121" viewBox="0 0 257 121" fill="none" xmlns="http://www.w3.org/2000/svg">
<path d="M56.7905 79.6869C56.5939 79.6855 56.4345 79.5272 56.4317 79.3306L55.856 38.9702C55.8546 38.8665 55.8994 38.7676 55.9784 38.7004V38.7004C56.2024 38.5097 56.5472 38.6659 56.5516 38.9601L57.1547 79.32C57.1577 79.5228 56.9933 79.6885 56.7905 79.6869V79.6869Z" fill="#E8E8E8"/>
<path d="M75.635 79.6869C75.4384 79.6855 75.279 79.5272 75.2762 79.3306L74.7005 38.9702C74.699 38.8665 74.7439 38.7676 74.8229 38.7004V38.7004C75.0469 38.5097 75.3917 38.6659 75.3961 38.9601L75.9992 79.32C76.0022 79.5228 75.8378 79.6885 75.635 79.6869V79.6869Z" fill="#E8E8E8"/>
<path d="M81.6592 77.3273C81.4714 77.2691 81.3645 77.0715 81.4186 76.8825L92.5274 38.0767C92.5559 37.977 92.6274 37.8953 92.7224 37.8537V37.8537C92.992 37.7359 93.277 37.9851 93.1962 38.268L82.1138 77.0812C82.0581 77.2762 81.8529 77.3873 81.6592 77.3273V77.3273Z" fill="#E8E8E8"/>
<path d="M94.5384 77.3519C94.3481 77.4014 94.1532 77.2897 94.0996 77.1005L83.1054 38.2622C83.0771 38.1624 83.0949 38.0552 83.1538 37.9699V37.9699C83.3209 37.7277 83.6944 37.7894 83.7747 38.0724L94.7953 76.9033C94.8507 77.0984 94.7347 77.3009 94.5384 77.3519V77.3519Z" fill="#E8E8E8"/>
<path d="M118.328 65.8014C118.199 65.9493 117.975 65.9666 117.824 65.8403L86.8887 39.9117C86.8093 39.8451 86.7636 39.7465 86.7643 39.6428V39.6428C86.7663 39.3487 87.1098 39.1896 87.3354 39.3784L118.288 65.286C118.444 65.4162 118.462 65.6488 118.328 65.8014V65.8014Z" fill="#E8E8E8"/>
<path d="M207.561 58.3096C207.466 58.4828 207.249 58.547 207.074 58.4537L148.838 27.3046C148.773 27.2698 148.721 27.2151 148.689 27.1486V27.1486C148.543 26.8454 148.87 26.5325 149.166 26.6911L207.415 57.8159C207.593 57.9109 207.659 58.1331 207.561 58.3096V58.3096Z" fill="#E8E8E8"/>
<path d="M227.111 56.4386C227.023 56.6156 226.809 56.689 226.63 56.6031L167.131 27.9409C167.065 27.9088 167.01 27.8565 166.975 27.7913V27.7913C166.817 27.4946 167.13 27.1682 167.433 27.3141L226.944 55.9514C227.126 56.0389 227.201 56.2581 227.111 56.4386V56.4386Z" fill="#E8E8E8"/>
<path d="M126.884 60.7028C126.755 60.8507 126.531 60.868 126.38 60.7417L95.4446 34.8131C95.3652 34.7465 95.3196 34.6479 95.3202 34.5442V34.5442C95.3222 34.25 95.6657 34.091 95.8913 34.2798L126.844 60.1874C127 60.3176 127.018 60.5502 126.884 60.7028V60.7028Z" fill="#E8E8E8"/>
<path d="M91.49 70.0449C91.355 69.9007 91.3607 69.6748 91.5028 69.5376L132.334 30.1044C132.393 30.0469 132.471 30.0126 132.554 30.0074V30.0074C132.877 29.9874 133.05 30.38 132.817 30.6047L92.0053 70.0577C91.8601 70.1981 91.6281 70.1923 91.49 70.0449V70.0449Z" fill="#E8E8E8"/>
<path d="M166.029 57.7175C165.886 57.5805 165.88 57.3546 166.015 57.2102L204.748 15.714C204.804 15.6535 204.88 15.6151 204.962 15.6057V15.6057C205.284 15.569 205.477 15.9521 205.256 16.1886L166.544 57.7036C166.406 57.8513 166.174 57.8575 166.029 57.7175V57.7175Z" fill="#E8E8E8"/>
<path d="M94.4287 70.0449C94.2937 69.9007 94.2994 69.6748 94.4415 69.5376L135.273 30.1044C135.332 30.0469 135.41 30.0126 135.493 30.0074V30.0074C135.815 29.9874 135.989 30.38 135.756 30.6047L94.944 70.0577C94.7988 70.1981 94.5668 70.1923 94.4287 70.0449V70.0449Z" fill="#E8E8E8"/>
<path d="M168.962 57.5651C168.82 57.4281 168.814 57.2023 168.949 57.0579L207.682 15.5616C207.738 15.5012 207.814 15.4628 207.896 15.4534V15.4534C208.218 15.4167 208.411 15.7998 208.19 16.0362L169.478 57.5512C169.34 57.6989 169.108 57.7052 168.962 57.5651V57.5651Z" fill="#E8E8E8"/>
<path d="M222.554 55.7252C222.367 55.7845 222.166 55.6832 222.103 55.4971L209.091 17.2875C209.057 17.1894 209.069 17.0814 209.124 16.9931V16.9931C209.278 16.7426 209.654 16.7846 209.749 17.063L222.787 55.2637C222.853 55.4557 222.748 55.664 222.554 55.7252V55.7252Z" fill="#E8E8E8"/>
<path d="M160.505 59.5276C160.318 59.5868 160.118 59.4861 160.054 59.3007L148.753 26.4891C148.716 26.3823 148.733 26.2642 148.799 26.1726V26.1726C148.964 25.9438 149.318 25.9958 149.41 26.2623L160.738 59.065C160.804 59.2572 160.699 59.4663 160.505 59.5276V59.5276Z" fill="#E8E8E8"/>
<path d="M147.996 59.7495C147.809 59.6916 147.702 59.4949 147.755 59.3062L157.164 25.9025C157.195 25.7938 157.276 25.7067 157.383 25.669V25.669C157.648 25.5748 157.91 25.8194 157.834 26.0909L148.451 59.5019C148.396 59.6976 148.191 59.8096 147.996 59.7495V59.7495Z" fill="#E8E8E8"/>
<path d="M142.14 58.3411C141.963 58.2563 141.886 58.046 141.967 57.8671L156.189 26.2121C156.236 26.109 156.329 26.0349 156.44 26.0132V26.0132C156.717 25.9592 156.939 26.2396 156.824 26.4969L142.626 58.1631C142.543 58.3487 142.323 58.4291 142.14 58.3411V58.3411Z" fill="#E8E8E8"/>
<path d="M213.895 56.8084C213.7 56.7858 213.559 56.6112 213.577 56.4155L217.35 16.2278C217.36 16.1245 217.415 16.031 217.501 15.9727V15.9727C217.744 15.8072 218.07 15.9996 218.043 16.2925L214.297 56.4828C214.278 56.6848 214.097 56.8317 213.895 56.8084V56.8084Z" fill="#E8E8E8"/>
<path d="M85.8251 70.4119C87.9908 70.4119 106.702 70.197 109.517 70.4119C109.517 72.3455 77.1625 83.5607 75.8631 83.7756C74.8236 83.9474 54.5819 82.7013 44.5911 82.0568C53.7879 78.9773 72.9178 72.6034 75.8631 71.744C79.5447 70.6697 83.6595 70.4119 85.8251 70.4119Z" fill="#E8E8E8"/>
<path fill-rule="evenodd" clip-rule="evenodd" d="M97.3647 70.0863C102.638 70.0594 108.022 70.0589 109.443 70.1681L109.762 70.1926V70.512C109.762 70.6867 109.676 70.8317 109.597 70.9327C109.513 71.0406 109.399 71.1464 109.27 71.2493C109.012 71.456 108.645 71.6873 108.197 71.9374C107.298 72.4395 106.021 73.0444 104.496 73.7112C101.444 75.0461 97.3655 76.6439 93.2516 78.1859C89.1365 79.7283 84.9813 81.2167 81.7735 82.333C80.1696 82.8912 78.8018 83.3566 77.7937 83.6895C77.2898 83.8559 76.8745 83.9896 76.564 84.0853C76.2653 84.1774 76.0379 84.2426 75.9288 84.2607C75.8306 84.2771 75.6611 84.2814 75.4609 84.2816C75.2489 84.2817 74.9704 84.2767 74.6339 84.2672C73.9603 84.2482 73.0458 84.2108 71.9487 84.1593C69.754 84.0561 66.8221 83.8957 63.6126 83.7097C57.1932 83.3378 49.6588 82.8635 44.6791 82.5401L44.5911 81.8691C53.7523 78.7812 72.8302 72.3825 75.7746 71.5177C79.4877 70.427 83.6253 70.1671 85.8017 70.1671C86.2613 70.1671 87.4683 70.1573 89.1113 70.144C91.3247 70.1261 94.3296 70.1018 97.3647 70.0863ZM89.1207 70.8338C87.4734 70.8471 86.2621 70.8569 85.8017 70.8569C83.6608 70.8569 79.5956 71.1144 75.9695 72.1795C73.2089 72.9903 56.1013 78.7214 46.4691 81.9645C51.3593 82.279 57.9469 82.6905 63.6526 83.0211C66.8614 83.207 69.7902 83.3672 71.9811 83.4702C73.0768 83.5217 73.9863 83.5588 74.6534 83.5777C74.9872 83.5871 75.2581 83.5919 75.4603 83.5917C75.6744 83.5916 75.7839 83.5855 75.8152 83.5803C75.868 83.5715 76.0444 83.5235 76.3603 83.4261C76.6645 83.3324 77.0749 83.2003 77.5768 83.0346C78.5803 82.7032 79.9444 82.239 81.5462 81.6816C84.7495 80.5668 88.8995 79.0803 93.0088 77.5401C97.1193 75.9994 101.184 74.4067 104.219 73.0793C105.738 72.415 106.991 71.8208 107.86 71.3353C108.207 71.1416 108.485 70.9694 108.693 70.8208C106.669 70.7499 102 70.7525 97.3683 70.7761C94.3407 70.7915 91.3363 70.8159 89.1207 70.8338ZM109.078 70.4694C109.078 70.4694 109.078 70.4696 109.078 70.47C109.078 70.4696 109.078 70.4694 109.078 70.4694Z" fill="#151515"/>
<path d="M22.3349 107.266C25.3105 107.09 32.859 104.797 36.2613 103.672L34.3584 92.3662C24.2812 96.1349 3.58179 104.014 1.402 105.381C-1.32274 107.09 1.402 108.537 3.08874 108.537C4.77548 108.537 18.6154 107.485 22.3349 107.266Z" fill="#E8E8E8"/>
<path fill-rule="evenodd" clip-rule="evenodd" d="M34.7277 92.1221L36.7507 103.905L36.4668 103.997C34.7613 104.55 32.0181 105.389 29.3271 106.113C26.6483 106.832 23.9833 107.448 22.4541 107.536C21.0507 107.617 18.2029 107.815 15.1093 108.029C14.1095 108.099 13.084 108.17 12.0733 108.239C7.94849 108.523 4.0483 108.782 3.18927 108.782C2.7233 108.782 2.19754 108.685 1.71506 108.515C1.23581 108.345 0.769061 108.093 0.443614 107.76C0.112039 107.421 -0.0975423 106.967 0.0458458 106.445C0.181478 105.952 0.611513 105.49 1.32054 105.054C1.61709 104.871 2.2014 104.595 2.99195 104.25C3.79046 103.901 4.82051 103.474 6.02402 102.988C8.4314 102.017 11.5402 100.809 14.8942 99.5288C21.6026 96.9679 29.2977 94.1128 34.3369 92.2654L34.7277 92.1221ZM3.27033 104.879C2.47241 105.227 1.93312 105.485 1.68475 105.638C1.03151 106.04 0.780414 106.383 0.713327 106.626C0.653996 106.842 0.720113 107.056 0.939933 107.281C1.16588 107.512 1.52622 107.719 1.94704 107.867C2.36464 108.015 2.81193 108.095 3.18927 108.095C4.01686 108.095 7.87945 107.839 12.0255 107.554C13.0338 107.484 14.0577 107.413 15.0564 107.344C18.1515 107.129 21.0061 106.931 22.414 106.85C23.8601 106.766 26.4568 106.172 29.1464 105.449C31.6791 104.768 34.2604 103.984 35.9681 103.435L34.1857 93.0535C29.1471 94.9024 21.6759 97.6762 15.1424 100.17C11.79 101.45 8.68585 102.656 6.28446 103.625C5.08359 104.109 4.0603 104.534 3.27033 104.879Z" fill="#151515"/>
<path d="M142.036 45.177C141.546 45.0867 141.19 44.6592 141.191 44.1609L141.206 31.7481C141.206 31.1663 141.703 30.7085 142.283 30.7549V30.7549C142.8 30.7963 143.199 31.2266 143.201 31.745L143.254 44.1577C143.257 44.8042 142.672 45.294 142.036 45.177V45.177Z" fill="#E8E8E8"/>
<path fill-rule="evenodd" clip-rule="evenodd" d="M140.672 44.1602L140.687 31.7475C140.688 30.8632 141.442 30.1675 142.324 30.2381C143.109 30.3009 143.716 30.9549 143.719 31.7428L143.773 44.1554C143.777 45.1268 142.897 45.8627 141.941 45.6869C141.205 45.5513 140.671 44.9089 140.672 44.1602ZM141.19 44.1609C141.19 44.6592 141.545 45.0867 142.035 45.1769C142.671 45.294 143.257 44.8042 143.254 44.1577L143.2 31.745C143.198 31.2266 142.799 30.7963 142.282 30.7549C141.703 30.7085 141.206 31.1663 141.205 31.7481L141.19 44.1609Z" fill="#151515"/>
<path d="M177.113 86.2784C176.59 86.2895 176.102 85.917 175.968 85.4043L171.735 69.2166C171.59 68.6627 171.922 68.1408 172.474 68.0559V68.0559C173.015 67.9725 173.565 68.3412 173.709 68.8841L178.012 85.06C178.18 85.6884 177.754 86.2647 177.113 86.2784V86.2784Z" fill="#E8E8E8"/>
<path fill-rule="evenodd" clip-rule="evenodd" d="M175.464 85.4894L171.231 69.3017C171.012 68.4648 171.514 67.6763 172.347 67.5479C173.165 67.422 173.996 67.9791 174.214 68.7994L178.517 84.9753C178.767 85.9136 178.131 86.7743 177.173 86.7947C176.393 86.8113 175.664 86.255 175.464 85.4894ZM175.968 85.4056C176.102 85.9183 176.59 86.2908 177.113 86.2797C177.755 86.266 178.18 85.6897 178.013 85.0613L173.71 68.8854C173.566 68.3425 173.016 67.9738 172.475 68.0571C171.923 68.1421 171.591 68.6639 171.735 69.2179L175.968 85.4056Z" fill="#151515"/>
<path d="M130.671 51.8396C130.149 51.7742 129.757 51.33 129.758 50.804L129.786 31.7064C129.786 31.1615 130.221 30.7163 130.766 30.7024V30.7024C131.33 30.688 131.796 31.1409 131.797 31.7055L131.842 50.803C131.844 51.4311 131.294 51.9177 130.671 51.8396V51.8396Z" fill="#E8E8E8"/>
<path fill-rule="evenodd" clip-rule="evenodd" d="M129.24 50.8034L129.267 31.7059C129.268 30.8801 129.927 30.2054 130.753 30.1843C131.608 30.1624 132.314 30.8488 132.316 31.7045L132.361 50.802C132.363 51.7425 131.539 52.4713 130.606 52.3543C129.825 52.2563 129.238 51.5912 129.24 50.8034ZM129.758 50.8042C129.757 51.3302 130.149 51.7744 130.671 51.8398C131.294 51.918 131.844 51.4313 131.843 50.8032L131.797 31.7057C131.796 31.1411 131.33 30.6882 130.766 30.7026C130.221 30.7165 129.787 31.1617 129.786 31.7066L129.758 50.8042Z" fill="#151515"/>
<path d="M174.988 86.668C174.519 86.8988 173.919 86.7671 173.581 86.3589L162.91 73.471C162.545 73.0301 162.626 72.4167 163.09 72.1069V72.1069C163.546 71.8029 164.2 71.905 164.56 72.3362L175.289 85.1837C175.706 85.6827 175.564 86.3849 174.988 86.668V86.668Z" fill="#E8E8E8"/>
<path fill-rule="evenodd" clip-rule="evenodd" d="M173.158 86.6485L162.487 73.7606C161.935 73.0943 162.058 72.1677 162.759 71.6995C163.447 71.2402 164.435 71.3945 164.979 72.0459L175.709 84.8934C176.331 85.6387 176.118 86.6872 175.259 87.11C174.558 87.4547 173.662 87.258 173.158 86.6485ZM173.58 86.3595C173.918 86.7677 174.517 86.8994 174.987 86.6685C175.562 86.3854 175.705 85.6833 175.288 85.1842L164.559 72.3367C164.199 71.9055 163.544 71.8034 163.089 72.1074C162.625 72.4173 162.544 73.0306 162.909 73.4716L173.58 86.3595Z" fill="#151515"/>
<path d="M150.434 88.6921C150.434 93.6987 147.856 97.7573 144.676 97.7573C141.496 97.7573 138.918 93.6987 138.918 88.6921C138.918 83.6856 141.496 79.627 144.676 79.627C147.856 79.627 150.434 83.6856 150.434 88.6921Z" fill="#E8E8E8"/>
<path fill-rule="evenodd" clip-rule="evenodd" d="M148.173 94.7287C149.134 93.2154 149.751 91.083 149.751 88.6921C149.751 86.3013 149.134 84.1689 148.173 82.6556C147.207 81.1349 145.955 80.3176 144.676 80.3176C143.397 80.3176 142.145 81.1349 141.179 82.6556C140.218 84.1689 139.601 86.3013 139.601 88.6921C139.601 91.083 140.218 93.2154 141.179 94.7287C142.145 96.2494 143.397 97.0666 144.676 97.0666C145.955 97.0666 147.207 96.2494 148.173 94.7287ZM144.676 97.7573C147.856 97.7573 150.434 93.6987 150.434 88.6921C150.434 83.6856 147.856 79.627 144.676 79.627C141.496 79.627 138.918 83.6856 138.918 88.6921C138.918 93.6987 141.496 97.7573 144.676 97.7573Z" fill="#151515"/>
<path d="M48.131 112.495C50.9479 111.357 60.0114 106.357 64.191 104C61.0277 101.729 55.242 96.7293 57.4063 94.9009C60.1116 92.6154 60.6698 86.4488 59.8539 84.1633C59.0381 81.8778 57.578 76.9187 56.161 72.5633C54.7439 68.2079 51.8239 69.6741 49.7627 70.4934C47.7015 71.3127 38.6409 74.6332 34.3468 76.9187C30.0526 79.2042 30.6109 83.344 31.4697 86.4488C32.3285 89.5537 34.948 101.714 37.6103 108.14C40.2727 114.565 44.6098 113.918 48.131 112.495Z" fill="#E8E8E8"/>
<path fill-rule="evenodd" clip-rule="evenodd" d="M50.2338 70.7738C50.1147 70.8218 49.9966 70.8694 49.8795 70.9156C49.4971 71.0667 48.8827 71.3002 48.1075 71.5947C44.6276 72.9169 37.9076 75.4702 34.3895 77.3315C32.3252 78.4236 31.4483 79.9384 31.1738 81.5467C30.8953 83.179 31.234 84.9307 31.6634 86.4737C31.8667 87.2042 32.1701 88.4441 32.5487 89.9913C32.9745 91.731 33.4953 93.8593 34.0758 96.0892C35.1786 100.325 36.5032 104.955 37.8335 108.146C39.1454 111.293 40.8366 112.639 42.5706 113.07C44.3311 113.506 46.2235 113.024 47.9798 112.318C50.6899 111.23 59.2501 106.551 63.6421 104.097C62.0816 102.948 60.0607 101.277 58.5963 99.645C57.7969 98.7537 57.1388 97.8473 56.8264 97.0248C56.6692 96.6112 56.5907 96.1963 56.6441 95.8039C56.6988 95.4016 56.8895 95.0459 57.227 94.7625C58.4949 93.6978 59.2974 91.6824 59.6714 89.5918C60.045 87.5035 59.9706 85.4574 59.589 84.3948C59.1243 83.101 58.4505 80.9467 57.6962 78.5349C57.1146 76.6755 56.4852 74.663 55.8668 72.7738C55.5218 71.7198 55.0964 71.0533 54.6457 70.6434C54.201 70.239 53.7116 70.0659 53.1949 70.0327C52.6692 69.9988 52.109 70.1096 51.5376 70.2887C51.0901 70.4289 50.6554 70.604 50.2338 70.7738ZM55.1117 70.1329C55.6785 70.6484 56.1559 71.4334 56.5245 72.5593C57.1513 74.4744 57.7836 76.4962 58.3652 78.3563C59.1138 80.7503 59.7787 82.8763 60.2403 84.1618C60.6804 85.387 60.7357 87.5712 60.3525 89.7132C59.9697 91.8529 59.1289 94.0679 57.6724 95.291C57.4651 95.4651 57.3611 95.6662 57.3297 95.8968C57.297 96.1373 57.3409 96.4314 57.4733 96.7799C57.7399 97.4815 58.3289 98.3115 59.1118 99.1842C60.6706 100.922 62.9011 102.725 64.4836 103.854L64.9263 104.17L64.4518 104.436C60.2534 106.79 51.1012 111.809 48.2381 112.959C46.4483 113.678 44.3838 114.231 42.4037 113.74C40.397 113.242 38.5638 111.696 37.1946 108.411C35.8438 105.171 34.5088 100.498 33.4061 96.2629C32.8178 94.0029 32.2972 91.8747 31.8735 90.1424C31.4989 88.6108 31.2 87.3887 30.9968 86.6585C30.5613 85.0936 30.1865 83.2193 30.4917 81.4307C30.8011 79.618 31.8053 77.9169 34.0655 76.7212C37.6293 74.8358 44.4282 72.2531 47.8933 70.9369C48.6547 70.6476 49.2551 70.4195 49.6249 70.2734C49.733 70.2307 49.845 70.1856 49.9603 70.1391C50.3852 69.9679 50.8539 69.779 51.3304 69.6297C51.9388 69.4391 52.5921 69.3017 53.2394 69.3434C53.8957 69.3857 54.5388 69.6119 55.1117 70.1329Z" fill="#151515"/>
<path d="M161.104 35.1924C158.893 35.7799 152.955 38.8068 150.262 40.2468C146.72 42.0797 129.614 48.2821 124.603 52.343C120.594 55.5917 92.3776 74.4905 78.7705 83.5338L65.9409 100.166L56.3511 120.298H58.6405L68.1871 104.443C68.1871 104.443 137.692 79.5162 143.48 77.0105C149.268 74.5049 170.91 62.8839 173.459 60.8967C176.008 58.9095 176.958 55.3238 177.995 52.343C179.031 49.3622 177.995 42.7525 173.459 37.7412C168.923 32.7299 163.869 34.458 161.104 35.1924Z" fill="#E8E8E8"/>
<path fill-rule="evenodd" clip-rule="evenodd" d="M161.576 35.5019C161.417 35.5453 161.263 35.5872 161.115 35.6266C160.048 35.9106 158.044 36.7988 155.942 37.8127C153.853 38.8208 151.702 39.9358 150.361 40.6544L150.359 40.6555L150.357 40.6566C149.456 41.1234 147.709 41.8616 145.537 42.7622C145.09 42.9479 144.623 43.1408 144.142 43.34C142.28 44.1101 140.19 44.9743 138.071 45.8826C135.404 47.0258 132.696 48.2366 130.344 49.4139C127.986 50.5943 126.009 51.73 124.789 52.7204C122.773 54.3577 114.709 59.9088 105.473 66.1674C96.2497 72.4179 85.8335 79.3896 79.0371 83.9148L66.2813 100.481L56.9548 120.095H58.4995L67.9966 104.294L68.1124 104.253L68.2289 104.578C68.1124 104.253 68.1126 104.252 68.1132 104.252L68.3117 104.181C68.4432 104.134 68.6384 104.063 68.8933 103.972C69.4031 103.789 70.1516 103.519 71.1062 103.176C73.0155 102.489 75.7496 101.505 79.0485 100.317C85.6464 97.9395 94.5037 94.7438 103.542 91.4698C121.628 84.9182 140.41 78.0623 143.288 76.8144C146.163 75.5678 152.998 72.0416 159.445 68.5717C162.666 66.8382 165.784 65.1215 168.256 63.7145C170.739 62.3005 172.541 61.215 173.153 60.7371C174.363 59.7919 175.208 58.455 175.882 56.9612C176.395 55.823 176.8 54.6188 177.194 53.4443C177.319 53.0716 177.443 52.7018 177.569 52.3382C178.056 50.9361 178.07 48.6132 177.383 45.9968C176.7 43.3914 175.333 40.5359 173.109 38.0746C170.909 35.6396 168.603 34.8558 166.516 34.7572C164.632 34.6682 162.918 35.1357 161.576 35.5019ZM68.4611 104.862L68.5447 104.832C68.6762 104.785 68.8715 104.714 69.1264 104.623C69.6363 104.439 70.3848 104.17 71.3395 103.827C73.2489 103.14 75.9831 102.156 79.2821 100.967C85.8802 98.5902 94.7379 95.3943 103.776 92.1202C121.843 85.5754 140.659 78.7081 143.562 77.4491C146.468 76.1888 153.33 72.6482 159.772 69.1809C162.996 67.4458 166.119 65.7263 168.597 64.3157C171.062 62.9121 172.917 61.7987 173.578 61.2825C174.913 60.2395 175.815 58.7885 176.511 57.246C177.04 56.0731 177.46 54.8223 177.856 53.6411C177.979 53.2744 178.1 52.9143 178.221 52.5654C178.77 50.9851 178.756 48.5103 178.051 45.8211C177.343 43.121 175.927 40.1631 173.621 37.6105C171.291 35.0317 168.809 34.1731 166.549 34.0664C164.548 33.9719 162.729 34.4695 161.393 34.835C161.234 34.8783 161.083 34.9198 160.938 34.9583C159.796 35.2621 157.731 36.182 155.643 37.1896C153.544 38.2023 151.386 39.3212 150.038 40.0434C149.169 40.4935 147.455 41.2183 145.273 42.1233C144.827 42.3085 144.361 42.501 143.88 42.6999C142.018 43.4702 139.923 44.3366 137.799 45.2468C135.128 46.3921 132.405 47.6091 130.036 48.7953C127.672 49.9785 125.637 51.142 124.355 52.1831C122.368 53.7961 114.34 59.3244 105.087 65.5945C95.8435 71.8582 85.4019 78.8468 78.6076 83.3704L78.5601 83.402L65.6898 100.117L55.8613 120.786H58.8896L68.4611 104.862Z" fill="#151515"/>
<path d="M146.654 88.8152C146.168 88.8048 145.722 88.4583 145.583 87.9823L142.665 78.0001C142.491 77.4077 142.869 76.8477 143.469 76.8093V76.8093C143.964 76.7775 144.442 77.118 144.588 77.6071L147.571 87.5762C147.765 88.2253 147.318 88.8295 146.654 88.8152V88.8152Z" fill="#E8E8E8"/>
<path fill-rule="evenodd" clip-rule="evenodd" d="M145.085 88.0822L142.166 78.1001C141.904 77.201 142.477 76.3513 143.387 76.293C144.138 76.2447 144.863 76.7615 145.085 77.5037L148.068 87.4728C148.359 88.4469 147.688 89.3536 146.692 89.3322C145.962 89.3166 145.294 88.7965 145.085 88.0822ZM145.583 87.9822C145.722 88.4582 146.168 88.8047 146.654 88.8151C147.318 88.8294 147.765 88.2252 147.571 87.5761L144.588 77.607C144.442 77.1179 143.964 76.7774 143.469 76.8091C142.869 76.8476 142.491 77.4075 142.665 78L145.583 87.9822Z" fill="#151515"/>
<path d="M147.588 88.9463C147.152 88.7002 146.923 88.1645 147.042 87.6699L149.868 75.8613C150.008 75.275 150.592 74.9741 151.129 75.2117V75.2117C151.599 75.4195 151.866 75.9702 151.746 76.4842L148.984 88.3141C148.832 88.9646 148.159 89.2694 147.588 88.9463V88.9463Z" fill="#E8E8E8"/>
<path fill-rule="evenodd" clip-rule="evenodd" d="M146.559 87.5067L149.385 75.6982C149.597 74.8101 150.482 74.3544 151.295 74.7141C152.007 75.0289 152.411 75.863 152.23 76.6417L149.468 88.4715C149.24 89.4458 148.232 89.9023 147.376 89.4185C146.725 89.0499 146.382 88.2475 146.559 87.5067ZM147.042 87.6685C146.923 88.1631 147.153 88.6988 147.588 88.945C148.159 89.268 148.832 88.9632 148.984 88.3127L151.746 76.4829C151.866 75.9688 151.599 75.4181 151.129 75.2103C150.592 74.9728 150.008 75.2736 149.868 75.86L147.042 87.6685Z" fill="#151515"/>
<path d="M159.712 66.7377C155.177 68.3316 145.823 73.8554 142.837 77.176C146.169 77.176 221.195 68.7301 231.492 66.7377C241.79 64.7454 249.102 62.06 252.087 59.7211C255.073 57.3823 255.419 57.0791 255.765 51.7517C256.111 46.4243 251.785 47.767 249.102 48.4166C246.419 49.0663 165.38 64.7454 159.712 66.7377Z" fill="#E8E8E8"/>
<path fill-rule="evenodd" clip-rule="evenodd" d="M141.368 77.9116L142.405 76.7519C143.968 75.0049 147.122 72.7433 150.397 70.7403C153.683 68.7299 157.194 66.917 159.522 66.0943C160.276 65.8279 162.205 65.3543 164.945 64.7357C167.707 64.1122 171.343 63.3308 175.552 62.448C183.97 60.6823 194.691 58.509 205.317 56.3781C215.13 54.4102 224.852 52.4803 232.609 50.9406C241.667 49.1426 248.045 47.8766 248.756 47.7035C248.882 47.6729 249.013 47.6402 249.15 47.6063C249.717 47.465 250.368 47.3031 251.018 47.1905C251.822 47.0512 252.695 46.9733 253.498 47.1196C254.321 47.2697 255.102 47.6634 255.628 48.476C256.138 49.2656 256.346 50.3543 256.255 51.7681C256.084 54.4065 255.911 55.9641 255.339 57.1466C254.761 58.341 253.8 59.0976 252.377 60.2187L252.322 60.2615C250.743 61.5057 248.088 62.7952 244.587 64.0188C241.069 65.248 236.645 66.4285 231.484 67.4322C226.315 68.4376 205.001 71.0579 184.609 73.4229C174.403 74.6065 164.414 75.7278 156.768 76.5532C152.945 76.9659 149.706 77.3047 147.319 77.5405C144.957 77.7738 143.378 77.9116 142.919 77.9116H141.368ZM142.919 77.2168C143.085 77.2168 143.431 77.1955 143.938 77.155C153.573 76.385 221.595 68.6478 231.353 66.75C241.625 64.7522 248.919 62.0595 251.897 59.7142C254.875 57.369 255.22 57.065 255.565 51.723C255.894 46.6446 252.009 47.6108 249.326 48.2783C249.187 48.3129 249.051 48.3467 248.919 48.3789C248.195 48.555 241.755 49.8334 232.632 51.6443C208.019 56.53 163.876 65.2924 159.751 66.75C155.547 68.2355 147.189 73.1253 143.64 76.4813C143.37 76.736 143.129 76.9819 142.919 77.2168Z" fill="#151515"/>
<path d="M158.187 44.7587C157.679 44.6367 157.301 44.1525 157.302 43.6226L157.317 26.8906C157.318 26.3181 157.772 25.8977 158.327 25.9555V25.9555C158.871 26.0123 159.31 26.5086 159.312 27.0703L159.367 43.8087C159.369 44.4589 158.811 44.9083 158.187 44.7587V44.7587Z" fill="#E8E8E8"/>
<path fill-rule="evenodd" clip-rule="evenodd" d="M156.794 43.5757L156.809 26.8437C156.81 25.9786 157.496 25.3435 158.335 25.4309C159.157 25.5166 159.82 26.2664 159.822 27.1152L159.878 43.8536C159.881 44.8246 159.048 45.4956 158.116 45.2722C157.357 45.0901 156.793 44.367 156.794 43.5757ZM157.303 43.6227C157.303 44.1526 157.68 44.6369 158.189 44.7588C158.813 44.9084 159.371 44.4591 159.368 43.8088L159.313 27.0704C159.311 26.5087 158.873 26.0124 158.328 25.9556C157.773 25.8978 157.319 26.3182 157.319 26.8907L157.303 43.6227Z" fill="#151515"/>
<path d="M148.163 48.8105C147.655 48.6885 147.277 48.2043 147.278 47.6744L147.293 30.9424C147.294 30.3698 147.748 29.9495 148.303 30.0073V30.0073C148.847 30.064 149.286 30.5603 149.288 31.1221L149.343 47.8605C149.345 48.5107 148.787 48.9601 148.163 48.8105V48.8105Z" fill="#E8E8E8"/>
<path fill-rule="evenodd" clip-rule="evenodd" d="M146.768 47.6284L146.784 30.8964C146.785 30.0314 147.471 29.3962 148.309 29.4836C149.132 29.5693 149.794 30.3191 149.797 31.1679L149.852 47.9063C149.856 48.8773 149.022 49.5484 148.091 49.325C147.331 49.1428 146.768 48.4198 146.768 47.6284ZM147.278 47.6755C147.277 48.2054 147.655 48.6896 148.163 48.8116C148.787 48.9612 149.345 48.5118 149.343 47.8616L149.288 31.1232C149.286 30.5614 148.847 30.0651 148.303 30.0084C147.748 29.9505 147.294 30.3709 147.293 30.9435L147.278 47.6755Z" fill="#151515"/>
<path d="M101.856 83.6821C105.775 79.0994 99.7888 79.5317 96.9033 79.7479C94.6598 79.9159 72.0441 82.1509 59.822 83.4227C60.2527 85.0656 60.9848 88.6539 58.3146 90.7291C55.6444 92.8043 48.7967 99.4622 47.3755 100.284C45.9542 101.105 45.5235 104.434 48.7967 104.607C52.0698 104.78 75.8432 102.748 79.1594 102.748C82.4756 102.748 85.7488 101.105 87.816 98.2085C89.8833 95.3119 97.9369 88.2648 101.856 83.6821Z" fill="#E8E8E8"/>
<path fill-rule="evenodd" clip-rule="evenodd" d="M99.5706 80.0747C98.6751 80.0741 97.7677 80.1407 97.0414 80.1949C94.8169 80.361 72.5526 82.5532 60.1803 83.8338C60.3799 84.6669 60.5903 85.8347 60.5034 87.0521C60.4013 88.4823 59.8858 90.0062 58.4437 91.1232C57.2061 92.0818 55.0568 94.0352 52.9556 95.9449C52.8022 96.0843 52.649 96.2235 52.4965 96.362C51.3796 97.3766 50.2989 98.3548 49.4077 99.131C48.5286 99.8966 47.8027 100.494 47.41 100.72C46.8376 101.05 46.4159 101.94 46.5255 102.784C46.5784 103.191 46.7538 103.569 47.0817 103.856C47.4103 104.143 47.9202 104.364 48.6838 104.405C49.4819 104.447 51.5683 104.354 54.3321 104.187C57.0847 104.02 60.4822 103.782 63.8829 103.539C64.7883 103.474 65.6945 103.409 66.5892 103.344C72.4009 102.925 77.7236 102.542 79.182 102.542C82.4023 102.542 85.5876 100.951 87.6009 98.1394C88.6626 96.6567 91.2361 94.1391 93.9985 91.4508C94.0999 91.3521 94.2015 91.2532 94.3034 91.1541C96.9962 88.5341 99.8452 85.762 101.731 83.5646C102.709 82.425 102.982 81.6885 102.94 81.2393C102.904 80.8487 102.606 80.552 101.964 80.3473C101.329 80.1448 100.472 80.0754 99.5706 80.0747ZM103.63 81.1757C103.7 81.9296 103.248 82.8603 102.256 84.016C100.35 86.2378 97.4811 89.0288 94.7995 91.6379C94.6932 91.7414 94.5871 91.8446 94.4814 91.9474C91.6925 94.6616 89.1799 97.1241 88.1639 98.543C86.0218 101.534 82.6277 103.235 79.182 103.235C77.751 103.235 72.4582 103.616 66.6332 104.036C65.7414 104.1 64.8371 104.165 63.9323 104.23C60.5317 104.474 57.1307 104.712 54.3738 104.878C51.6282 105.044 49.4942 105.141 48.6474 105.096C47.7662 105.05 47.0966 104.789 46.6257 104.377C46.1542 103.965 45.9103 103.425 45.8387 102.873C45.6995 101.802 46.2084 100.613 47.0644 100.12C47.3859 99.9345 48.056 99.3896 48.953 98.6084C49.8378 97.8377 50.9133 96.8644 52.031 95.849C52.1873 95.707 52.3444 95.5642 52.502 95.4209C54.5909 93.5224 56.7592 91.5517 58.0198 90.5753C59.2614 89.6135 59.7199 88.3008 59.8126 87.0027C59.9058 85.6971 59.6259 84.4321 59.4119 83.6186L59.309 83.2275L59.7111 83.1858C71.9926 81.9121 94.7288 79.6727 96.9899 79.5039C97.7137 79.4499 98.6459 79.3812 99.5711 79.3818C100.49 79.3825 101.435 79.4511 102.174 79.6872C102.907 79.9209 103.555 80.3631 103.63 81.1757Z" fill="#151515"/>
<path d="M80.2781 78.2843C79.6845 78.2146 79.2454 77.6986 79.2715 77.1015L80.8719 40.6059C80.8952 40.0745 81.2956 39.6361 81.8227 39.5649V39.5649C82.5005 39.4733 83.0964 40.0164 83.068 40.6997L81.5506 77.1988C81.5231 77.862 80.9373 78.3616 80.2781 78.2843V78.2843Z" fill="#E8E8E8"/>
<path fill-rule="evenodd" clip-rule="evenodd" d="M78.7535 77.0793L80.3538 40.5837C80.3881 39.8017 80.9775 39.1564 81.7533 39.0516C82.7508 38.9168 83.6278 39.7161 83.586 40.7218L82.0687 77.2209C82.0286 78.1855 81.1765 78.9123 80.2176 78.7998C79.3542 78.6985 78.7154 77.9478 78.7535 77.0793ZM79.2715 77.102C79.2453 77.6991 79.6845 78.2152 80.2781 78.2848C80.9373 78.3622 81.5231 77.8625 81.5506 77.1994L83.0679 40.7002C83.0963 40.0169 82.5004 39.4739 81.8227 39.5654C81.2956 39.6366 80.8951 40.0751 80.8718 40.6064L79.2715 77.102Z" fill="#151515"/>
<path d="M92.6564 72.1955C92.068 72.1265 91.6307 71.618 91.6504 71.0259L92.7034 39.3917C92.7217 38.8433 93.1418 38.3925 93.6876 38.3358V38.3358C94.349 38.2671 94.9193 38.7972 94.8989 39.4619L93.9281 71.0988C93.9076 71.7665 93.3198 72.2734 92.6564 72.1955V72.1955Z" fill="#E8E8E8"/>
<path fill-rule="evenodd" clip-rule="evenodd" d="M91.1324 71.0083L92.1854 39.374C92.2123 38.5667 92.8308 37.9031 93.6342 37.8196C94.6079 37.7184 95.4474 38.4989 95.4174 39.4773L94.4466 71.1143C94.4168 72.0857 93.5615 72.8233 92.5962 72.7101C91.7401 72.6096 91.1037 71.8698 91.1324 71.0083ZM91.6506 71.0255C91.6309 71.6176 92.0683 72.126 92.6566 72.1951C93.3201 72.2729 93.9079 71.766 93.9283 71.0984L94.8991 39.4614C94.9195 38.7968 94.3492 38.2666 93.6878 38.3354C93.1421 38.3921 92.7219 38.8428 92.7037 39.3912L91.6506 71.0255Z" fill="#151515"/>
<path d="M212.352 66.203C211.793 66.2028 211.331 65.7645 211.303 65.206L208.822 16.3477C208.799 15.9054 209.067 15.4999 209.483 15.3472V15.3472C210.122 15.1123 210.806 15.5635 210.841 16.2435L213.401 65.0978C213.432 65.6987 212.953 66.2031 212.352 66.203V66.203Z" fill="#E8E8E8"/>
<path fill-rule="evenodd" clip-rule="evenodd" d="M210.784 65.2325L208.303 16.3742C208.269 15.7051 208.674 15.0917 209.303 14.8606C210.27 14.5054 211.304 15.1879 211.358 16.2166L213.918 65.0708C213.965 65.9684 213.25 66.7218 212.351 66.7216C211.515 66.7214 210.827 66.0667 210.784 65.2325ZM211.302 65.2062C211.331 65.7647 211.792 66.203 212.351 66.2031C212.953 66.2033 213.431 65.6988 213.4 65.098L210.841 16.2437C210.805 15.5637 210.121 15.1125 209.482 15.3473C209.066 15.5001 208.798 15.9056 208.821 16.3479L211.302 65.2062Z" fill="#151515"/>
<path d="M221.847 54.868C221.293 54.8679 220.835 54.4373 220.8 53.8846L218.34 14.7983C218.31 14.3281 218.61 13.8999 219.061 13.7658V13.7658C219.683 13.5813 220.315 14.022 220.357 14.6694L222.894 53.7508C222.933 54.3558 222.453 54.8681 221.847 54.868V54.868Z" fill="#E8E8E8"/>
<path fill-rule="evenodd" clip-rule="evenodd" d="M220.282 53.9173L217.823 14.831C217.778 14.1197 218.23 13.4717 218.914 13.2689C219.855 12.9897 220.811 13.6565 220.875 14.6359L223.412 53.7173C223.47 54.6214 222.753 55.3869 221.847 55.3867C221.019 55.3865 220.334 54.7432 220.282 53.9173ZM220.8 53.8848C220.835 54.4375 221.293 54.868 221.847 54.8682C222.453 54.8683 222.933 54.356 222.894 53.7509L220.357 14.6695C220.315 14.0222 219.683 13.5815 219.061 13.766C218.61 13.9 218.311 14.3283 218.34 14.7985L220.8 53.8848Z" fill="#151515"/>
<path d="M235.82 52.0051C235.623 52.0114 235.458 51.8595 235.447 51.6632L233.271 11.3574C233.266 11.2539 233.307 11.1532 233.383 11.083V11.083C233.599 10.8835 233.95 11.026 233.966 11.3197L236.169 51.624C236.18 51.8265 236.022 51.9985 235.82 52.0051V52.0051Z" fill="#E8E8E8"/>
<path d="M208.498 57.5353C208.301 57.5417 208.136 57.3898 208.125 57.1935L205.95 16.8877C205.944 16.7842 205.985 16.6835 206.061 16.6132V16.6132C206.277 16.4138 206.628 16.5562 206.644 16.85L208.847 57.1543C208.858 57.3568 208.701 57.5288 208.498 57.5353V57.5353Z" fill="#E8E8E8"/>
<path d="M132.324 26.7012C124.27 28.3341 91.5203 31.927 76.1523 33.5193C69.6276 34.2056 57.4859 37.6015 50.4429 41.3797C43.3998 45.1579 50.9614 43.8985 53.986 43.8985C57.0106 43.8985 103.331 40.1203 111.67 39.1215C120.01 38.1227 119.448 37.0804 126.016 35.2999C132.583 33.5194 132.324 29.7412 135.565 30.2623C138.805 30.7834 134.052 35.2999 141.355 33.5193C148.657 31.7388 224.964 13.5427 230.02 12.5439C235.075 11.5451 246.137 9.76453 251.927 4.42295C257.717 -0.918633 251.408 0.384192 249.421 0.384192C247.433 0.384192 246.915 -0.397502 226.736 4.42295C206.557 9.24339 142.392 24.6601 132.324 26.7012Z" fill="#E8E8E8"/>
<path fill-rule="evenodd" clip-rule="evenodd" d="M250.713 0.770134C250.274 0.801717 249.865 0.831148 249.565 0.831148C249.326 0.831148 249.111 0.820611 248.886 0.809553C248.146 0.773232 247.291 0.731278 245.091 1.03856C242.207 1.44141 237.045 2.44315 226.955 4.84195C224.186 5.5004 220.587 6.35767 216.412 7.35204C190.176 13.6015 141.206 25.2662 132.512 27.0203C124.435 28.6499 91.656 32.2282 76.2955 33.8121C76.2955 33.8121 76.2955 33.8121 76.2954 33.8121L76.26 33.4681L76.296 33.812C76.2958 33.812 76.2957 33.8121 76.2955 33.8121C69.8092 34.4911 57.7091 37.8598 50.7079 41.5974C49.8334 42.0643 49.195 42.4484 48.7501 42.7624C48.2935 43.0846 48.0786 43.3073 48.0019 43.4419C47.9964 43.4516 47.9921 43.4599 47.9888 43.4669C47.984 43.464 47.9796 43.461 47.9756 43.4581C47.9665 43.4515 47.9634 43.4482 47.9634 43.4482C47.9633 43.4482 47.973 43.4588 47.9768 43.481C47.9783 43.4893 47.9781 43.4947 47.9779 43.4966C47.9778 43.4971 47.9777 43.4974 47.9778 43.4974C47.9778 43.4974 47.9778 43.4971 47.9779 43.4966C47.9784 43.4939 47.9806 43.4844 47.9888 43.4669C48.0699 43.5178 48.2548 43.5759 48.5797 43.6126C49.2396 43.6871 50.2186 43.6505 51.2486 43.5914C51.4837 43.5779 51.7213 43.5632 51.9572 43.5487C52.7372 43.5006 53.4982 43.4537 54.089 43.4537C55.5831 43.4537 67.8994 42.5157 80.9155 41.4502C93.9218 40.3854 107.582 39.1973 111.744 38.7011C115.897 38.2061 117.816 37.7026 119.51 37.1079C119.963 36.9486 120.405 36.7809 120.872 36.6037C122.154 36.1173 123.625 35.5592 126.044 34.9065C129.253 34.0407 130.782 32.6976 131.92 31.6226C131.982 31.5636 132.044 31.5049 132.106 31.4465C132.599 30.9777 133.062 30.5378 133.577 30.2417C134.181 29.8938 134.853 29.7427 135.74 29.8845C136.189 29.9564 136.535 30.103 136.792 30.326C137.051 30.5511 137.189 30.8293 137.264 31.1117C137.338 31.3868 137.353 31.6773 137.362 31.9362C137.363 31.9897 137.365 32.0415 137.366 32.0921C137.371 32.2994 137.376 32.4842 137.4 32.6603C137.429 32.8739 137.481 33.0339 137.569 33.1547C137.651 33.2687 137.787 33.3772 138.041 33.4496C138.578 33.603 139.572 33.5742 141.395 33.132C148.694 31.3608 225.027 13.2459 230.093 12.2498C230.476 12.1746 230.891 12.0951 231.336 12.0102C233.841 11.5313 237.258 10.8783 240.741 9.837C244.848 8.60944 249.001 6.85533 251.838 4.25074C252.554 3.59322 253.075 3.04519 253.438 2.59045C253.804 2.13218 253.995 1.78627 254.072 1.53294C254.147 1.28851 254.109 1.16223 254.06 1.08819C254.001 0.999662 253.874 0.906207 253.634 0.83196C253.148 0.681972 252.411 0.67249 251.627 0.711176C251.325 0.726064 251.012 0.748599 250.713 0.770134ZM253.978 3.02195C253.586 3.514 253.037 4.08854 252.305 4.76027C249.351 7.47269 245.076 9.26326 240.939 10.4997C237.419 11.552 233.963 12.2123 231.459 12.6908C231.017 12.7753 230.605 12.8541 230.227 12.9284C225.18 13.9208 148.866 32.0306 141.558 33.8042C139.728 34.2481 138.577 34.322 137.851 34.1147C137.473 34.0068 137.196 33.8191 137.009 33.5611C136.827 33.3099 136.751 33.0221 136.715 32.7522C136.685 32.5356 136.68 32.3041 136.674 32.0942C136.673 32.0476 136.672 32.0021 136.67 31.958C136.662 31.7018 136.647 31.4813 136.596 31.2897C136.547 31.1053 136.468 30.961 136.338 30.8479C136.206 30.7327 135.992 30.6253 135.63 30.5675C134.896 30.45 134.385 30.5744 133.921 30.8412C133.483 31.0934 133.084 31.4718 132.577 31.9528C132.518 32.009 132.457 32.0666 132.395 32.1255C131.21 33.2444 129.584 34.6679 126.224 35.5743C123.841 36.2173 122.414 36.7586 121.139 37.2426C120.665 37.4224 120.212 37.5943 119.739 37.7605C117.985 38.3762 116.015 38.8886 111.826 39.3879C107.648 39.8859 93.9723 41.0753 80.972 42.1395C67.9816 43.2029 55.6203 44.1454 54.089 44.1454C53.5216 44.1454 52.792 44.1903 52.0174 44.238C51.7774 44.2528 51.5332 44.2678 51.2882 44.2819C50.2693 44.3403 49.2306 44.3821 48.5021 44.2999C48.1519 44.2603 47.8021 44.1861 47.5704 44.0186C47.4431 43.9265 47.3286 43.7893 47.2956 43.5996C47.2636 43.416 47.3188 43.2439 47.4011 43.0995C47.5588 42.8227 47.8851 42.5263 48.3515 42.1972C48.8294 41.8599 49.4957 41.4606 50.3823 40.9872C57.4702 37.2033 69.6582 33.8114 76.224 33.1241L76.2245 33.1241C91.6066 31.538 124.34 27.9635 132.375 26.3423C141.056 24.5909 190.005 12.9312 216.246 6.68059C220.422 5.68583 224.024 4.82807 226.795 4.16906C236.888 1.76958 242.077 0.761234 244.995 0.353563C247.264 0.0367255 248.179 0.0819224 248.924 0.118683C249.143 0.129456 249.346 0.139504 249.565 0.139504C249.848 0.139504 250.207 0.113297 250.617 0.0833827C250.918 0.0614065 251.247 0.0374293 251.593 0.0203715C252.37 -0.0179422 253.221 -0.0193188 253.838 0.171112C254.148 0.267073 254.451 0.426906 254.636 0.705641C254.83 0.998869 254.85 1.35384 254.733 1.73554C254.619 2.10834 254.368 2.53343 253.978 3.02195Z" fill="#151515"/>
<path d="M122.012 54.3251C122.603 52.7424 124.866 49.3373 124.866 46.1547C124.866 42.1765 128.671 41.4065 130.66 46.1547C130.968 46.8901 131.318 47.6071 131.699 48.2936L136.194 46.1547C137.707 46.1547 144.236 46.1547 144.755 50.133C145.274 54.1112 140.993 54.8812 138.702 54.8812C138.536 54.8812 138.363 54.8604 138.183 54.8201C137.476 54.6614 136.67 54.2002 135.838 53.5101C128.553 49.9552 123.658 52.4409 122.012 54.3251Z" fill="#E8E8E8"/>
<path fill-rule="evenodd" clip-rule="evenodd" d="M126.894 43.0793C125.953 43.1549 125.056 44.1091 125.056 46.0223C125.056 47.6926 124.465 49.3991 123.819 50.8637C123.51 51.564 123.184 52.2176 122.898 52.7902C122.884 52.8185 122.87 52.8466 122.856 52.8745C122.85 52.8869 122.844 52.8992 122.838 52.9115C124.996 51.4414 128.88 50.3491 134.097 52.3303C133.083 51.2217 132.096 49.8482 131.258 48.335C130.87 47.6353 130.513 46.9042 130.199 46.1538C129.222 43.819 127.869 43.001 126.894 43.0793ZM138.196 54.399C137.409 53.9064 136.644 53.4813 135.903 53.1172C134.586 52.0153 133.193 50.3143 132.045 48.3208L136.148 46.3659C136.958 46.3664 138.864 46.3831 140.645 46.8535C142.509 47.3453 144.078 48.2856 144.309 50.0603C144.431 50.9945 144.269 51.7148 143.946 52.2759C143.621 52.8406 143.117 53.2711 142.51 53.5953C141.288 54.2489 139.707 54.4398 138.583 54.4398C138.463 54.4398 138.334 54.4265 138.196 54.399ZM135.521 53.6969C128.366 50.2175 123.645 52.6897 122.111 54.4497L121.523 54.1061C121.679 53.6882 121.941 53.1585 122.234 52.5702C122.248 52.5434 122.261 52.5163 122.275 52.4891C122.561 51.9144 122.881 51.2736 123.183 50.5884C123.819 49.1476 124.363 47.5472 124.363 46.0223C124.363 43.9414 125.373 42.5121 126.838 42.3944C128.27 42.2794 129.822 43.4584 130.84 45.8907C131.101 46.5154 131.393 47.127 131.71 47.7178L135.99 45.6787H136.074C136.837 45.6787 138.889 45.6787 140.824 46.1895C142.744 46.6962 144.708 47.753 144.997 49.9723C145.135 51.0352 144.956 51.9093 144.549 52.6164C144.143 53.32 143.529 53.8316 142.84 54.2C141.472 54.9314 139.758 55.127 138.583 55.127C138.388 55.127 138.188 55.1024 137.986 55.057C137.211 54.8827 136.364 54.3917 135.521 53.6969Z" fill="#151515"/>
<path d="M145.777 88.2872C145.777 87.6992 146.224 87.2078 146.808 87.1529L174.714 84.5312C175.273 84.4787 175.781 84.8578 175.891 85.4094V85.4094C176.019 86.0472 175.568 86.6555 174.922 86.7181L147.024 89.4211C146.356 89.4858 145.777 88.9597 145.777 88.2872V88.2872Z" fill="#E8E8E8"/>
<path fill-rule="evenodd" clip-rule="evenodd" d="M146.786 86.6403L174.641 84.0442C175.462 83.9676 176.21 84.5204 176.372 85.3247C176.559 86.2546 175.896 87.1416 174.946 87.2329L147.099 89.9094C146.128 90.0028 145.288 89.2444 145.288 88.2751C145.288 87.4277 145.937 86.7194 146.786 86.6403ZM146.834 87.152C146.251 87.2063 145.805 87.6929 145.805 88.2751C145.805 88.941 146.382 89.4621 147.049 89.3979L174.896 86.7214C175.542 86.6594 175.991 86.057 175.864 85.4254C175.754 84.8792 175.247 84.5038 174.689 84.5558L146.834 87.152Z" fill="#151515"/>
<path d="M183.998 85.1395C183.998 90.6197 181.585 95.0622 178.608 95.0622C175.631 95.0622 173.218 90.6197 173.218 85.1395C173.218 79.6593 175.631 75.2168 178.608 75.2168C181.585 75.2168 183.998 79.6593 183.998 85.1395Z" fill="#E8E8E8"/>
<path fill-rule="evenodd" clip-rule="evenodd" d="M181.809 91.8232C182.719 90.1481 183.303 87.7863 183.303 85.1395C183.303 82.4927 182.719 80.1309 181.809 78.4558C180.884 76.7539 179.722 75.9131 178.608 75.9131C177.495 75.9131 176.332 76.7539 175.408 78.4558C174.498 80.1309 173.914 82.4927 173.914 85.1395C173.914 87.7863 174.498 90.1481 175.408 91.8232C176.332 93.5251 177.495 94.3659 178.608 94.3659C179.722 94.3659 180.884 93.5251 181.809 91.8232ZM178.608 95.0622C181.585 95.0622 183.998 90.6197 183.998 85.1395C183.998 79.6593 181.585 75.2168 178.608 75.2168C175.631 75.2168 173.218 79.6593 173.218 85.1395C173.218 90.6197 175.631 95.0622 178.608 95.0622Z" fill="#151515"/>
</svg>
