<svg width="219" height="201" viewBox="0 0 219 201" fill="none" xmlns="http://www.w3.org/2000/svg">
<path d="M211.468 25.2003C206.26 36.8371 183.623 72.8096 172.956 89.3412L123.084 79.0897C137.353 61.9577 172.014 23.8426 196.507 8.43772C227.123 -10.8184 217.98 10.6543 211.468 25.2003Z" fill="#E8E8E8"/>
<path fill-rule="evenodd" clip-rule="evenodd" d="M216.837 13.9624C215.531 17.7533 213.727 21.8493 212.1 25.4834C209.474 31.3506 202.486 43.2938 194.849 55.7964C187.202 68.3165 178.873 81.4475 173.537 89.7169L173.28 90.1153L121.811 79.5354L122.551 78.6465C129.697 70.0666 141.943 56.2396 155.469 42.628C168.986 29.026 183.82 15.5983 196.137 7.85155C203.797 3.03383 209.075 0.691503 212.58 0.201813C214.343 -0.0446113 215.759 0.163799 216.8 0.871077C217.855 1.58721 218.394 2.72361 218.594 4.03914C218.986 6.61483 218.13 10.2078 216.837 13.9624ZM212.771 1.57382C209.583 2.01923 204.523 4.21387 196.875 9.02422C184.699 16.6824 169.956 30.0147 156.452 43.6045C143.415 56.7238 131.569 70.0451 124.358 78.6447L172.63 88.5674C177.969 80.2858 186.149 67.3833 193.667 55.0743C201.318 42.5485 208.253 30.6871 210.835 24.9174C212.464 21.2786 214.244 17.2357 215.527 13.5112C216.823 9.7503 217.56 6.45127 217.225 4.24756C217.061 3.17338 216.657 2.44825 216.022 2.01715C215.374 1.5772 214.354 1.35269 212.771 1.57382Z" fill="#161616"/>
<path d="M53.4013 43.0708C51.7389 45.8415 43.7501 55.0308 39.9635 59.2792L26.6643 55.4003C25.0019 53.6455 25.3344 47.587 39.9635 37.3909C58.2499 24.6459 55.4793 39.6075 53.4013 43.0708Z" fill="#E8E8E8"/>
<path fill-rule="evenodd" clip-rule="evenodd" d="M55.297 39.0166C55.0229 40.7567 54.4418 42.4137 53.8762 43.3563C53.0168 44.7886 50.5695 47.817 47.9023 50.9786C45.2199 54.1581 42.2727 57.5214 40.377 59.6483L40.1441 59.9096L26.365 55.8906L26.2618 55.7818C25.1792 54.639 24.9718 52.3789 26.7222 49.2884C28.485 46.1761 32.3021 42.0555 39.6465 36.9367C44.2375 33.7369 47.5795 32.2214 49.989 31.8667C51.2033 31.688 52.2123 31.7993 53.0282 32.1699C53.8504 32.5433 54.4286 33.1585 54.8111 33.8987C55.5597 35.3473 55.5691 37.2884 55.297 39.0166ZM50.1504 32.9632C48.0014 33.2795 44.8323 34.6732 40.2802 37.8459C32.9954 42.9232 29.3317 46.9299 27.6865 49.8346C26.1161 52.6073 26.4444 54.2311 26.9763 54.9145L39.7823 58.6496C41.6761 56.5204 44.4882 53.3067 47.0552 50.2639C49.7446 47.0761 52.1228 44.1245 52.9259 42.7861C53.3993 41.997 53.9438 40.4851 54.2022 38.8441C54.4625 37.1912 54.4113 35.5391 53.8265 34.4075C53.5424 33.8576 53.1357 33.436 52.5699 33.179C51.9977 32.9191 51.2155 32.8064 50.1504 32.9632Z" fill="#161616"/>
<path d="M11.01 39.469C11.4533 46.6727 16.7361 54.1073 19.322 56.9242C15.0737 60.0643 5.77359 67.9514 2.55961 74.3793C-1.45786 82.4143 5.19174 80.3363 7.13121 80.3363C9.07068 80.3363 28.8809 69.2536 31.9286 66.4829C34.3668 64.2664 36.0846 65.5594 36.6388 66.4829C42.7342 69.9925 56.3105 77.3439 61.8518 78.6739C68.7785 80.3363 88.4502 90.5877 92.3292 93.2199L92.4495 93.3015C96.3488 95.9462 103.064 100.5 96.2081 107.904C89.2814 115.385 77.6446 128.684 72.7959 134.503C67.9473 140.321 62.5444 147.802 57.6958 154.452C52.8472 161.101 46.7517 171.907 44.5351 177.864C42.3186 183.821 40.9333 184.375 40.6562 190.332C40.3791 196.289 41.3489 202.938 54.7866 198.09C68.2244 193.241 140.123 129.654 145.942 123.143C151.76 116.632 156.609 112.476 157.855 109.547C158.154 109.608 158.431 109.661 158.687 109.705C166.999 111.146 176.373 109.105 180.021 107.904C181.314 107.258 185.812 105.411 193.459 103.194C203.017 100.424 196.091 95.852 193.459 93.2199C190.826 90.5877 180.852 83.6611 164.782 78.6739C151.926 74.6841 132.088 71.8396 123.776 70.916C123.961 70.5466 122.668 69.1428 116.018 66.4829C107.706 63.1581 100.503 63.9893 97.455 63.7123C94.4072 63.4352 67.1161 59.1407 52.8472 56.9242C38.5783 54.7077 33.7296 49.8589 29.7121 46.8112C25.6947 43.7635 19.322 36.4213 17.1055 34.7589C14.889 33.0965 10.4559 30.4643 11.01 39.469Z" fill="#E8E8E8"/>
<path fill-rule="evenodd" clip-rule="evenodd" d="M11.936 34.8953C11.604 35.7812 11.4265 37.2136 11.5633 39.4354C11.7779 42.9238 13.1694 46.5014 14.849 49.5765C16.5263 52.6473 18.467 55.1737 19.7304 56.5499L20.1472 57.0039L19.6515 57.3703C17.5454 58.927 14.1776 61.6678 10.9394 64.8165C7.69099 67.9752 4.61888 71.5006 3.05539 74.6276C2.06268 76.613 1.78457 77.873 1.85812 78.6479C1.89342 79.0199 2.00829 79.2663 2.15346 79.4389C2.30144 79.6149 2.51169 79.7505 2.79275 79.8476C3.37596 80.0492 4.16205 80.0523 4.98798 79.9836C5.32098 79.9559 5.64396 79.9184 5.9515 79.8827C6.01853 79.875 6.08483 79.8673 6.15034 79.8598C6.50432 79.8193 6.85196 79.7826 7.13136 79.7826C7.13008 79.7826 7.13872 79.7826 7.1599 79.7797C7.18043 79.7769 7.20815 79.772 7.24393 79.764C7.31609 79.7479 7.40931 79.722 7.52503 79.6845C7.75661 79.6094 8.05441 79.4955 8.41384 79.3443C9.13159 79.0424 10.0646 78.6045 11.1489 78.0655C13.3158 76.9885 16.0608 75.5212 18.8441 73.9654C21.6269 72.4097 24.4425 70.7687 26.7502 69.3452C29.0763 67.9105 30.8392 66.725 31.556 66.0734C32.8657 64.8827 34.0768 64.5569 35.0996 64.7626C36.018 64.9473 36.6735 65.5397 37.0326 66.0706C40.0813 67.8229 44.9265 70.4951 49.7026 72.9013C54.5612 75.3491 59.2836 77.488 61.9813 78.1355C65.516 78.9838 72.2222 81.993 78.4792 85.0869C84.7462 88.1858 90.6657 91.4218 92.6405 92.7618L92.8094 92.8764C94.7299 94.1788 97.4746 96.0402 98.8483 98.5528C99.5536 99.8429 99.9065 101.317 99.6067 102.97C99.3088 104.614 98.3762 106.379 96.6148 108.281C89.6948 115.755 78.0643 129.047 73.2218 134.858C68.7368 140.24 63.7732 147.053 59.2039 153.324C58.8479 153.812 58.4944 154.298 58.1437 154.779C53.3158 161.4 47.2488 172.161 45.0546 178.057C44.4945 179.563 43.9868 180.727 43.5377 181.717C43.4188 181.979 43.305 182.226 43.1958 182.464C42.8896 183.131 42.6206 183.716 42.3823 184.306C41.7507 185.868 41.3459 187.433 41.2099 190.358C41.1413 191.834 41.1524 193.315 41.4022 194.636C41.6518 195.957 42.1311 197.07 42.961 197.862C44.596 199.422 47.899 199.986 54.5987 197.569C56.2053 196.989 58.7465 195.503 62.0118 193.286C65.2618 191.08 69.1854 188.18 73.5416 184.811C82.2531 178.074 92.6748 169.474 102.863 160.818C113.05 152.163 122.999 143.456 130.764 136.506C138.544 129.543 144.1 124.373 145.529 122.774C147.568 120.492 149.494 118.492 151.18 116.742C151.905 115.99 152.585 115.284 153.21 114.622C155.017 112.708 156.337 111.188 157.042 109.94C153.731 109.203 148.413 107.684 142.496 105.994C139.528 105.146 136.409 104.255 133.317 103.398C128.447 102.049 123.633 100.781 119.545 99.8863C115.433 98.9866 112.129 98.4829 110.241 98.6216L110.16 97.5163C112.232 97.3641 115.688 97.9079 119.782 98.8036C123.9 99.7046 128.738 100.98 133.613 102.33C136.744 103.198 139.887 104.096 142.867 104.947C149.191 106.754 154.781 108.35 157.967 109.004C158.261 109.065 158.533 109.117 158.781 109.16C166.941 110.574 176.181 108.578 179.81 107.391C181.191 106.708 185.712 104.863 193.304 102.662C195.665 101.978 196.878 101.214 197.42 100.502C197.681 100.159 197.789 99.8259 197.8 99.4972C197.81 99.1603 197.72 98.7935 197.53 98.3938C197.143 97.5808 196.392 96.7342 195.528 95.8978C195.114 95.4976 194.687 95.1109 194.275 94.7384L194.235 94.7019C193.814 94.3217 193.408 93.9528 193.067 93.6121C190.516 91.0616 180.63 84.1728 164.618 79.2035C151.815 75.2303 132.021 72.3901 123.715 71.4672L122.925 71.3794L123.193 70.8449C123.184 70.834 123.174 70.8221 123.162 70.8091C123.012 70.6388 122.707 70.3775 122.16 70.0245C121.072 69.3228 119.124 68.3223 115.813 66.9979C109.415 64.4389 103.743 64.3835 100.046 64.3474C98.9973 64.3371 98.1074 64.3284 97.4049 64.2646C94.848 64.0321 75.4782 61.0123 60.8416 58.7304C57.8988 58.2716 55.1473 57.8427 52.7623 57.4722C45.5743 56.3556 40.734 54.5718 37.1743 52.6685C34.3447 51.1557 32.3272 49.5659 30.6238 48.2235C30.1908 47.8823 29.778 47.557 29.3774 47.2531C27.3299 45.6998 24.7029 43.0707 22.3376 40.6535C22.0041 40.3128 21.6758 39.9762 21.3546 39.6469C20.5296 38.801 19.7515 38.0032 19.0542 37.3075C18.0785 36.3339 17.2911 35.5911 16.7732 35.2026C16.2296 34.7949 15.5718 34.3447 14.9033 34.0286C14.2213 33.7061 13.6094 33.5625 13.1262 33.6579C12.6982 33.7423 12.2573 34.038 11.936 34.8953ZM158.173 110.175C157.418 111.656 155.917 113.369 154.016 115.383C153.378 116.058 152.69 116.772 151.962 117.529C150.281 119.273 148.38 121.247 146.355 123.513C144.874 125.169 139.261 130.389 131.503 137.332C123.731 144.288 113.775 153.001 103.58 161.662C93.3865 170.323 82.9503 178.936 74.2196 185.688C69.8546 189.064 65.911 191.979 62.6343 194.203C59.3729 196.417 56.7277 197.979 54.9748 198.611C48.2368 201.043 44.3361 200.706 42.196 198.664C41.1384 197.655 40.5874 196.292 40.3132 194.842C40.0392 193.393 40.0329 191.809 40.1028 190.306C40.2439 187.274 40.6703 185.584 41.3548 183.89C41.6035 183.275 41.888 182.656 42.198 181.981C42.3052 181.748 42.4155 181.508 42.5285 181.259C42.9712 180.283 43.4678 179.144 44.016 177.671C46.2549 171.654 52.3789 160.804 57.2482 154.126C57.6004 153.643 57.9557 153.155 58.3135 152.664C62.8768 146.401 67.8611 139.56 72.3704 134.149C77.2252 128.323 88.8684 115.016 95.8016 107.528C97.4681 105.729 98.2669 104.148 98.5163 102.773C98.7638 101.407 98.4797 100.189 97.8758 99.0845C96.6428 96.8291 94.1154 95.1013 92.1387 93.7606L92.0182 93.6789C90.1141 92.3868 84.2581 89.1809 77.9879 86.0804C71.7076 82.9749 65.1146 80.0272 61.7226 79.2131C58.879 78.5307 54.0426 76.3288 49.2039 73.8911C44.3442 71.4427 39.4171 68.7224 36.3624 66.9636L36.2377 66.8918L36.1637 66.7685C35.9455 66.4048 35.4953 65.9726 34.8811 65.8491C34.2969 65.7316 33.43 65.8675 32.3015 66.8934C31.4945 67.6271 29.6382 68.866 27.3321 70.2885C25.0076 71.7222 22.1779 73.3714 19.3848 74.9327C16.5922 76.4939 13.8305 77.9704 11.6422 79.058C10.549 79.6013 9.59232 80.0509 8.84357 80.3659C8.46975 80.5231 8.1401 80.6501 7.86692 80.7387C7.61257 80.8212 7.34811 80.8908 7.13136 80.8908C6.92589 80.8908 6.64148 80.9191 6.27627 80.9609C6.21438 80.9679 6.15058 80.9753 6.08512 80.9829C5.7771 81.0187 5.43259 81.0588 5.07978 81.0881C4.23898 81.158 3.25011 81.1783 2.43067 80.8951C2.0104 80.7498 1.6124 80.5174 1.30528 80.1522C0.995347 79.7837 0.808257 79.3158 0.75481 78.7526C0.650863 77.6574 1.0481 76.164 2.06413 74.132C3.71461 70.831 6.89955 67.1989 10.1668 64.022C13.2061 61.0667 16.3563 58.4675 18.5064 56.8427C17.203 55.3436 15.4289 52.9503 13.8764 50.1077C12.1573 46.9604 10.6857 43.2188 10.4571 39.5035C10.3167 37.2229 10.4856 35.6076 10.8982 34.5064C11.3216 33.3766 12.0235 32.7458 12.9116 32.5706C13.7444 32.4062 14.6218 32.6695 15.3771 33.0267C16.1459 33.3903 16.8734 33.8925 17.4381 34.316C18.0284 34.7587 18.8689 35.557 19.837 36.5229C20.54 37.2244 21.3263 38.0305 22.1535 38.8787C22.4736 39.2069 22.7998 39.5413 23.1297 39.8784C25.5091 42.3099 28.0773 44.8757 30.0472 46.3702C30.469 46.6902 30.896 47.0265 31.3385 47.375C33.0366 48.7124 34.9622 50.2291 37.6968 51.6912C41.133 53.5284 45.8515 55.2771 52.9324 56.3771C55.33 56.7495 58.0926 57.1802 61.0446 57.6404C75.6872 59.9231 94.9883 62.932 97.5053 63.1609C98.1249 63.2172 98.9463 63.2245 99.9365 63.2333C103.608 63.2658 109.6 63.3189 116.224 65.9689C119.563 67.3043 121.586 68.3356 122.761 69.0931C123.345 69.4697 123.745 69.7949 123.992 70.0748C124.085 70.1795 124.168 70.2913 124.231 70.4099C132.768 71.3782 152.237 74.2007 164.947 78.1451C181.074 83.1502 191.137 90.1148 193.851 92.8285C194.168 93.1459 194.553 93.4956 194.978 93.88L195.023 93.9205C195.432 94.29 195.871 94.6878 196.299 95.1014C197.175 95.9491 198.052 96.9121 198.531 97.9173C198.773 98.4268 198.925 98.9712 198.907 99.5332C198.889 100.103 198.695 100.656 198.303 101.173C197.537 102.179 196.032 103.026 193.613 103.727C185.98 105.939 181.519 107.776 180.269 108.4L180.233 108.419L180.194 108.431C176.501 109.647 167.028 111.714 158.592 110.252C158.458 110.229 158.318 110.203 158.173 110.175Z" fill="#161616"/>
<path fill-rule="evenodd" clip-rule="evenodd" d="M98.5869 64.1289C97.1694 66.0199 96.6123 68.5643 96.4684 70.926C96.3206 73.3507 96.6033 75.6674 96.9132 77.074L96.9787 77.371L97.2643 77.4753L97.4544 76.9548C97.2643 77.4753 97.2644 77.4753 97.2645 77.4753L97.2649 77.4755L97.2662 77.476L97.2713 77.4778L97.2908 77.4849C97.3079 77.4911 97.3332 77.5002 97.3662 77.5121C97.4324 77.5359 97.5298 77.5707 97.6555 77.6152C97.9069 77.7041 98.2716 77.8315 98.7264 77.9859C99.6358 78.2949 100.906 78.7125 102.351 79.1477C105.23 80.0149 108.841 80.9638 111.668 81.2465C114.428 81.5225 115.907 81.5365 116.914 81.2847C117.757 81.0739 118.273 80.6659 118.843 80.2151C118.977 80.109 119.114 80.0005 119.259 79.8917C119.631 79.6133 119.856 79.5381 119.993 79.5187C120.13 79.4996 120.242 79.5234 120.457 79.5837L120.489 79.5926C120.696 79.6509 120.993 79.7346 121.362 79.7089C121.754 79.6815 122.178 79.5371 122.681 79.2276C123.628 78.6446 124.611 77.8088 125.295 76.9777C125.635 76.5637 125.922 76.1254 126.084 75.6987C126.242 75.2813 126.315 74.7751 126.058 74.3248C125.919 74.0819 125.54 73.5951 125.066 73.0134C124.577 72.4125 123.947 71.6626 123.269 70.8671C123.003 70.5543 122.729 70.234 122.453 69.9126C121.826 69.5089 120.937 69.0177 119.706 68.4345C120.559 69.4125 121.536 70.5409 122.426 71.5857C123.101 72.3788 123.725 73.1215 124.207 73.7131C124.704 74.324 125.013 74.7296 125.095 74.8746C125.115 74.9092 125.154 75.0263 125.048 75.306C124.945 75.5762 124.739 75.9085 124.439 76.2738C123.841 77.0011 122.953 77.7585 122.1 78.2838C121.702 78.5284 121.451 78.5918 121.285 78.6033C121.114 78.6152 120.981 78.5795 120.756 78.5165L120.751 78.5149C120.533 78.4541 120.223 78.3672 119.839 78.4212C119.453 78.4755 119.055 78.66 118.595 79.005C118.399 79.1514 118.233 79.282 118.084 79.3987C117.547 79.8205 117.24 80.0608 116.645 80.2095C115.852 80.4079 114.56 80.4219 111.778 80.1438C109.065 79.8724 105.541 78.9511 102.671 78.0866C101.241 77.6559 99.9831 77.2424 99.0829 76.9366C98.6329 76.7837 98.2725 76.6578 98.0249 76.5703L97.9334 76.5379C97.6683 75.1991 97.4439 73.1383 97.5746 70.9934C97.7161 68.6708 98.2692 66.3332 99.5534 64.6894C99.7107 64.4881 99.9017 64.3084 100.125 64.15C100.08 64.1496 100.035 64.1492 99.9908 64.1488C99.4804 64.144 99.0112 64.1396 98.5869 64.1289Z" fill="#161616"/>
<path fill-rule="evenodd" clip-rule="evenodd" d="M181.144 103.061C181.573 104.537 182.171 105.711 182.775 106.412L181.935 107.135C181.193 106.273 180.535 104.937 180.08 103.37C179.622 101.794 179.359 99.946 179.437 98.0362C179.592 94.2132 181.119 90.0915 185.243 87.4658L185.839 88.4007C182.099 90.7817 180.688 94.5171 180.544 98.0811C180.472 99.8647 180.718 101.593 181.144 103.061Z" fill="black"/>
</svg>
