<svg width="176" height="179" viewBox="0 0 176 179" fill="none" xmlns="http://www.w3.org/2000/svg">
<path d="M175.579 87.7221C175.579 135.766 136.631 174.714 88.5873 174.714C40.5432 174.714 1.5957 135.766 1.5957 87.7221C1.5957 39.6779 40.5432 0.730469 88.5873 0.730469C136.631 0.730469 175.579 39.6779 175.579 87.7221Z" fill="#E8E8E8"/>
<path fill-rule="evenodd" clip-rule="evenodd" d="M88.5873 169.228C133.602 169.228 170.093 132.736 170.093 87.7221C170.093 42.7078 133.602 6.21643 88.5873 6.21643C43.573 6.21643 7.08166 42.7078 7.08166 87.7221C7.08166 132.736 43.573 169.228 88.5873 169.228ZM88.5873 174.714C136.631 174.714 175.579 135.766 175.579 87.7221C175.579 39.6779 136.631 0.730469 88.5873 0.730469C40.5432 0.730469 1.5957 39.6779 1.5957 87.7221C1.5957 135.766 40.5432 174.714 88.5873 174.714Z" fill="#161616"/>
<path fill-rule="evenodd" clip-rule="evenodd" d="M88.8834 55.2929C66.1791 55.2284 43.5299 45.8055 24.2429 27.5108L29.1007 22.3496C47.2425 39.5581 68.211 48.1334 88.9034 48.1922C109.585 48.251 130.301 39.8045 147.975 22.396L152.929 27.4644C134.058 46.0522 111.599 55.3574 88.8834 55.2929Z" fill="black"/>
<path d="M134.399 87.7221C134.399 135.766 113.888 174.714 88.5866 174.714C63.2852 174.714 42.7744 135.766 42.7744 87.7221C42.7744 39.6779 63.2852 0.730469 88.5866 0.730469C113.888 0.730469 134.399 39.6779 134.399 87.7221Z" fill="#E8E8E8"/>
<path fill-rule="evenodd" clip-rule="evenodd" d="M115.265 146.22C122.975 131.581 127.938 110.909 127.938 87.7221C127.938 64.5349 122.975 43.8637 115.265 29.2242C107.4 14.2884 97.6498 7.19606 88.5866 7.19606C79.5234 7.19606 69.7736 14.2884 61.908 29.2242C54.1985 43.8637 49.2351 64.5349 49.2351 87.7221C49.2351 110.909 54.1985 131.581 61.908 146.22C69.7736 161.156 79.5234 168.248 88.5866 168.248C97.6498 168.248 107.4 161.156 115.265 146.22ZM88.5866 174.714C113.888 174.714 134.399 135.766 134.399 87.7221C134.399 39.6779 113.888 0.730469 88.5866 0.730469C63.2852 0.730469 42.7744 39.6779 42.7744 87.7221C42.7744 135.766 63.2852 174.714 88.5866 174.714Z" fill="#161616"/>
<path fill-rule="evenodd" clip-rule="evenodd" d="M88.8834 55.2929C66.1791 55.2284 43.5299 45.8055 24.2429 27.5108L29.1007 22.3496C47.2425 39.5581 68.211 48.1334 88.9034 48.1922C109.585 48.251 130.301 39.8045 147.975 22.396L152.929 27.4644C134.058 46.0522 111.599 55.3574 88.8834 55.2929Z" fill="#161616"/>
<path fill-rule="evenodd" clip-rule="evenodd" d="M88.0336 122.725C110.647 122.788 133.206 132.064 152.416 150.073L147.577 155.153C129.508 138.214 108.623 129.772 88.0137 129.714C67.4151 129.657 46.7813 137.971 29.1783 155.108L24.2444 150.118C43.0399 131.821 65.409 122.661 88.0336 122.725Z" fill="#161616"/>
<path fill-rule="evenodd" clip-rule="evenodd" d="M174.034 91.84H0.0510254V85.6631H174.034V91.84Z" fill="#161616"/>
<path fill-rule="evenodd" clip-rule="evenodd" d="M84.4696 178.832L84.4696 4.84863L90.6465 4.84863L90.6465 178.832L84.4696 178.832Z" fill="#161616"/>
</svg>
