<svg width="154" height="13" viewBox="0 0 154 13" fill="none" xmlns="http://www.w3.org/2000/svg">
<path d="M149.494 12.5285C148.381 12.5285 147.469 12.2875 146.757 11.8057C146.046 11.3238 145.616 10.6354 145.467 9.74055L147.463 9.22427C147.543 9.62582 147.675 9.94133 147.859 10.1708C148.054 10.4002 148.289 10.5666 148.564 10.6699C148.851 10.7616 149.161 10.8075 149.494 10.8075C149.998 10.8075 150.371 10.7215 150.612 10.5494C150.853 10.3658 150.974 10.1421 150.974 9.87822C150.974 9.61435 150.859 9.41357 150.629 9.27589C150.4 9.12675 150.033 9.00628 149.528 8.9145L149.046 8.82845C148.45 8.71372 147.905 8.55884 147.411 8.3638C146.918 8.15728 146.522 7.8762 146.224 7.52054C145.925 7.16487 145.776 6.70596 145.776 6.14378C145.776 5.29478 146.086 4.64656 146.706 4.19912C147.325 3.7402 148.14 3.51074 149.149 3.51074C150.102 3.51074 150.893 3.72299 151.524 4.14749C152.155 4.57199 152.568 5.12843 152.763 5.8168L150.75 6.43634C150.658 6.00037 150.469 5.6906 150.182 5.50703C149.907 5.32347 149.562 5.23168 149.149 5.23168C148.736 5.23168 148.421 5.30626 148.203 5.45541C147.985 5.59308 147.876 5.78812 147.876 6.04053C147.876 6.31588 147.991 6.52239 148.22 6.66006C148.45 6.78627 148.759 6.88379 149.149 6.95262L149.631 7.03867C150.274 7.1534 150.853 7.30829 151.369 7.50333C151.897 7.68689 152.31 7.95651 152.608 8.31217C152.918 8.65636 153.073 9.12675 153.073 9.72334C153.073 10.6182 152.746 11.3123 152.092 11.8057C151.45 12.2875 150.583 12.5285 149.494 12.5285Z" fill="#E8E8E8"/>
<path d="M141.329 12.5285C140.216 12.5285 139.304 12.2875 138.592 11.8057C137.881 11.3238 137.451 10.6354 137.302 9.74055L139.298 9.22427C139.378 9.62582 139.51 9.94133 139.694 10.1708C139.889 10.4002 140.124 10.5666 140.399 10.6699C140.686 10.7616 140.996 10.8075 141.329 10.8075C141.833 10.8075 142.206 10.7215 142.447 10.5494C142.688 10.3658 142.809 10.1421 142.809 9.87822C142.809 9.61435 142.694 9.41357 142.464 9.27589C142.235 9.12675 141.868 9.00628 141.363 8.9145L140.881 8.82845C140.284 8.71372 139.74 8.55884 139.246 8.3638C138.753 8.15728 138.357 7.8762 138.059 7.52054C137.76 7.16487 137.611 6.70596 137.611 6.14378C137.611 5.29478 137.921 4.64656 138.541 4.19912C139.16 3.7402 139.975 3.51074 140.984 3.51074C141.937 3.51074 142.728 3.72299 143.359 4.14749C143.99 4.57199 144.403 5.12843 144.598 5.8168L142.585 6.43634C142.493 6.00037 142.304 5.6906 142.017 5.50703C141.742 5.32347 141.397 5.23168 140.984 5.23168C140.571 5.23168 140.256 5.30626 140.038 5.45541C139.82 5.59308 139.711 5.78812 139.711 6.04053C139.711 6.31588 139.826 6.52239 140.055 6.66006C140.284 6.78627 140.594 6.88379 140.984 6.95262L141.466 7.03867C142.109 7.1534 142.688 7.30829 143.204 7.50333C143.732 7.68689 144.145 7.95651 144.443 8.31217C144.753 8.65636 144.908 9.12675 144.908 9.72334C144.908 10.6182 144.581 11.3123 143.927 11.8057C143.285 12.2875 142.418 12.5285 141.329 12.5285Z" fill="#E8E8E8"/>
<path d="M132.602 12.5285C131.753 12.5285 131.001 12.3506 130.347 11.995C129.705 11.6278 129.2 11.1173 128.833 10.4633C128.477 9.79791 128.299 9.01775 128.299 8.12286V7.91635C128.299 7.02146 128.477 6.24704 128.833 5.59308C129.188 4.92765 129.688 4.41711 130.33 4.06144C130.973 3.69431 131.718 3.51074 132.567 3.51074C133.405 3.51074 134.133 3.70005 134.753 4.07865C135.372 4.44579 135.854 4.96207 136.198 5.6275C136.543 6.28146 136.715 7.04441 136.715 7.91635V8.65636H130.502C130.525 9.24148 130.743 9.7176 131.156 10.0847C131.569 10.4519 132.074 10.6354 132.671 10.6354C133.279 10.6354 133.726 10.5035 134.013 10.2396C134.3 9.97574 134.518 9.68318 134.667 9.36194L136.439 10.2913C136.279 10.5895 136.044 10.9165 135.734 11.2722C135.435 11.6164 135.034 11.9147 134.529 12.1671C134.024 12.408 133.382 12.5285 132.602 12.5285ZM130.519 7.03867H134.512C134.466 6.54534 134.265 6.14952 133.91 5.85122C133.565 5.55293 133.112 5.40378 132.55 5.40378C131.965 5.40378 131.5 5.55293 131.156 5.85122C130.812 6.14952 130.6 6.54534 130.519 7.03867Z" fill="#E8E8E8"/>
<path d="M118.968 12.2878V3.75193H121.102V4.87054H121.412C121.549 4.57225 121.807 4.29116 122.186 4.02728C122.565 3.75193 123.138 3.61426 123.907 3.61426C124.572 3.61426 125.152 3.76914 125.645 4.07891C126.15 4.37721 126.54 4.79597 126.815 5.3352C127.091 5.86295 127.228 6.48249 127.228 7.19382V12.2878H125.06V7.36591C125.06 6.72342 124.899 6.24156 124.578 5.92032C124.268 5.59908 123.821 5.43845 123.236 5.43845C122.57 5.43845 122.054 5.66218 121.687 6.10962C121.32 6.54559 121.136 7.1594 121.136 7.95103V12.2878H118.968Z" fill="#E8E8E8"/>
<path d="M113.784 12.5285C112.935 12.5285 112.183 12.3506 111.529 11.995C110.887 11.6278 110.382 11.1173 110.015 10.4633C109.659 9.79791 109.481 9.01775 109.481 8.12286V7.91635C109.481 7.02146 109.659 6.24704 110.015 5.59308C110.371 4.92765 110.87 4.41711 111.512 4.06144C112.155 3.69431 112.9 3.51074 113.749 3.51074C114.587 3.51074 115.315 3.70005 115.935 4.07865C116.555 4.44579 117.036 4.96207 117.381 5.6275C117.725 6.28146 117.897 7.04441 117.897 7.91635V8.65636H111.684C111.707 9.24148 111.925 9.7176 112.338 10.0847C112.751 10.4519 113.256 10.6354 113.853 10.6354C114.461 10.6354 114.908 10.5035 115.195 10.2396C115.482 9.97574 115.7 9.68318 115.849 9.36194L117.621 10.2913C117.461 10.5895 117.226 10.9165 116.916 11.2722C116.618 11.6164 116.216 11.9147 115.711 12.1671C115.206 12.408 114.564 12.5285 113.784 12.5285ZM111.701 7.03867H115.694C115.648 6.54534 115.447 6.14952 115.092 5.85122C114.748 5.55293 114.294 5.40378 113.732 5.40378C113.147 5.40378 112.682 5.55293 112.338 5.85122C111.994 6.14952 111.782 6.54534 111.701 7.03867Z" fill="#E8E8E8"/>
<path d="M104.235 12.2881V3.75219H106.369V4.71592H106.679C106.805 4.37173 107.011 4.11933 107.298 3.9587C107.596 3.79808 107.941 3.71777 108.331 3.71777H109.363V5.64523H108.296C107.746 5.64523 107.292 5.79438 106.937 6.09267C106.581 6.3795 106.403 6.82694 106.403 7.43501V12.2881H104.235Z" fill="#E8E8E8"/>
<path d="M97.7981 12.5285C97.1901 12.5285 96.6451 12.4252 96.1632 12.2187C95.6814 12.0007 95.297 11.6909 95.0102 11.2894C94.7349 10.8764 94.5972 10.3773 94.5972 9.79218C94.5972 9.20706 94.7349 8.71946 95.0102 8.32938C95.297 7.92782 95.6871 7.62953 96.1804 7.43449C96.6852 7.22798 97.2589 7.12472 97.9014 7.12472H100.242V6.64286C100.242 6.2413 100.116 5.91432 99.8633 5.66192C99.6109 5.39804 99.2093 5.2661 98.6586 5.2661C98.1194 5.2661 97.7178 5.39231 97.4539 5.64471C97.1901 5.88564 97.018 6.20115 96.9377 6.59123L94.9414 5.92006C95.079 5.48409 95.297 5.08827 95.5953 4.73261C95.9051 4.36548 96.3124 4.07292 96.8172 3.85493C97.3335 3.62547 97.9587 3.51074 98.693 3.51074C99.8174 3.51074 100.707 3.79183 101.36 4.354C102.014 4.91618 102.341 5.73076 102.341 6.79774V9.98148C102.341 10.3257 102.502 10.4978 102.823 10.4978H103.512V12.2875H102.066C101.642 12.2875 101.292 12.1843 101.016 11.9778C100.741 11.7713 100.603 11.4959 100.603 11.1517V11.1345H100.276C100.23 11.2722 100.127 11.4558 99.9665 11.6852C99.8059 11.9032 99.5535 12.0982 99.2093 12.2703C98.8651 12.4424 98.3947 12.5285 97.7981 12.5285ZM98.1767 10.7731C98.7848 10.7731 99.2781 10.6068 99.6567 10.274C100.047 9.92985 100.242 9.47667 100.242 8.9145V8.7424H98.0563C97.6547 8.7424 97.3392 8.82845 97.1098 9.00055C96.8803 9.17264 96.7656 9.41357 96.7656 9.72334C96.7656 10.0331 96.886 10.2855 97.127 10.4806C97.3679 10.6756 97.7178 10.7731 98.1767 10.7731Z" fill="#E8E8E8"/>
<path d="M83.2003 12.2878L81.9956 3.75195H84.1468L84.904 10.825H85.2138L86.3152 3.75195H89.7915L90.8929 10.825H91.2026L91.9598 3.75195H94.111L92.9064 12.2878H89.3096L88.2082 5.21475H87.8984L86.797 12.2878H83.2003Z" fill="#E8E8E8"/>
<path d="M71.6384 12.2878L74.8049 0.241211H78.7631L81.9296 12.2878H79.5892L78.9352 9.63755H74.6329L73.9789 12.2878H71.6384ZM75.1663 7.538H78.4017L76.9389 1.66959H76.6291L75.1663 7.538Z" fill="#E8E8E8"/>
<path d="M59.4807 12.2878V3.75193H61.6147V4.87054H61.9245C62.0621 4.57225 62.3203 4.29116 62.6989 4.02728C63.0775 3.75193 63.6511 3.61426 64.4198 3.61426C65.0852 3.61426 65.6646 3.76914 66.158 4.07891C66.6628 4.37721 67.0529 4.79597 67.3282 5.3352C67.6036 5.86295 67.7412 6.48249 67.7412 7.19382V12.2878H65.5728V7.36591C65.5728 6.72342 65.4122 6.24156 65.091 5.92032C64.7812 5.59908 64.3338 5.43845 63.7486 5.43845C63.0832 5.43845 62.5669 5.66218 62.1998 6.10962C61.8327 6.54559 61.6491 7.1594 61.6491 7.95103V12.2878H59.4807Z" fill="#E8E8E8"/>
<path d="M53.8643 12.5285C53.0153 12.5285 52.2524 12.3564 51.5755 12.0122C50.8986 11.668 50.3651 11.1689 49.975 10.515C49.5849 9.86102 49.3899 9.07512 49.3899 8.15728V7.88193C49.3899 6.9641 49.5849 6.1782 49.975 5.52424C50.3651 4.87029 50.8986 4.37121 51.5755 4.02703C52.2524 3.68284 53.0153 3.51074 53.8643 3.51074C54.7133 3.51074 55.4763 3.68284 56.1532 4.02703C56.8301 4.37121 57.3636 4.87029 57.7537 5.52424C58.1437 6.1782 58.3388 6.9641 58.3388 7.88193V8.15728C58.3388 9.07512 58.1437 9.86102 57.7537 10.515C57.3636 11.1689 56.8301 11.668 56.1532 12.0122C55.4763 12.3564 54.7133 12.5285 53.8643 12.5285ZM53.8643 10.601C54.5298 10.601 55.0805 10.3888 55.5164 9.96427C55.9524 9.5283 56.1704 8.90876 56.1704 8.10566V7.93356C56.1704 7.13046 55.9524 6.51665 55.5164 6.09215C55.0919 5.65618 54.5412 5.4382 53.8643 5.4382C53.1989 5.4382 52.6482 5.65618 52.2122 6.09215C51.7763 6.51665 51.5583 7.13046 51.5583 7.93356V8.10566C51.5583 8.90876 51.7763 9.5283 52.2122 9.96427C52.6482 10.3888 53.1989 10.601 53.8643 10.601Z" fill="#E8E8E8"/>
<path d="M46.0932 12.2875V3.75165H48.2616V12.2875H46.0932ZM47.1774 2.75351C46.7873 2.75351 46.4546 2.6273 46.1793 2.3749C45.9154 2.12249 45.7834 1.78978 45.7834 1.37675C45.7834 0.963728 45.9154 0.631012 46.1793 0.378607C46.4546 0.126202 46.7873 0 47.1774 0C47.579 0 47.9117 0.126202 48.1756 0.378607C48.4394 0.631012 48.5714 0.963728 48.5714 1.37675C48.5714 1.78978 48.4394 2.12249 48.1756 2.3749C47.9117 2.6273 47.579 2.75351 47.1774 2.75351Z" fill="#E8E8E8"/>
<path d="M42.3764 12.2877C41.8142 12.2877 41.3553 12.1156 40.9996 11.7714C40.6554 11.4157 40.4833 10.9453 40.4833 10.3602V5.54159H38.3494V3.75181H40.4833V1.10156H42.6517V3.75181H44.9922V5.54159H42.6517V9.98162C42.6517 10.3258 42.8123 10.4979 43.1336 10.4979H44.7857V12.2877H42.3764Z" fill="#E8E8E8"/>
<path d="M33.2881 12.5285C32.68 12.5285 32.1351 12.4252 31.6532 12.2187C31.1713 12.0007 30.787 11.6909 30.5002 11.2894C30.2248 10.8764 30.0872 10.3773 30.0872 9.79218C30.0872 9.20706 30.2248 8.71946 30.5002 8.32938C30.787 7.92782 31.1771 7.62953 31.6704 7.43449C32.1752 7.22798 32.7489 7.12472 33.3914 7.12472H35.7318V6.64286C35.7318 6.2413 35.6056 5.91432 35.3532 5.66192C35.1008 5.39804 34.6993 5.2661 34.1486 5.2661C33.6094 5.2661 33.2078 5.39231 32.9439 5.64471C32.68 5.88564 32.5079 6.20115 32.4276 6.59123L30.4313 5.92006C30.569 5.48409 30.787 5.08827 31.0853 4.73261C31.3951 4.36548 31.8024 4.07292 32.3072 3.85493C32.8234 3.62547 33.4487 3.51074 34.183 3.51074C35.3073 3.51074 36.1965 3.79183 36.8504 4.354C37.5044 4.91618 37.8314 5.73076 37.8314 6.79774V9.98148C37.8314 10.3257 37.992 10.4978 38.3133 10.4978H39.0016V12.2875H37.556C37.1315 12.2875 36.7816 12.1843 36.5063 11.9778C36.2309 11.7713 36.0932 11.4959 36.0932 11.1517V11.1345H35.7663C35.7204 11.2722 35.6171 11.4558 35.4565 11.6852C35.2959 11.9032 35.0435 12.0982 34.6993 12.2703C34.3551 12.4424 33.8847 12.5285 33.2881 12.5285ZM33.6667 10.7731C34.2748 10.7731 34.7681 10.6068 35.1467 10.274C35.5368 9.92985 35.7318 9.47667 35.7318 8.9145V8.7424H33.5463C33.1447 8.7424 32.8292 8.82845 32.5997 9.00055C32.3703 9.17264 32.2555 9.41357 32.2555 9.72334C32.2555 10.0331 32.376 10.2855 32.6169 10.4806C32.8579 10.6756 33.2078 10.7731 33.6667 10.7731Z" fill="#E8E8E8"/>
<path d="M24.1469 12.4255C23.4814 12.4255 22.8963 12.2763 22.3915 11.9781C21.8982 11.6683 21.5138 11.2438 21.2385 10.7046C20.9631 10.1653 20.8254 9.54579 20.8254 8.84594V3.75195H22.9938V8.67384C22.9938 9.31633 23.1487 9.79819 23.4585 10.1194C23.7797 10.4407 24.2329 10.6013 24.818 10.6013C25.4834 10.6013 25.9997 10.3833 26.3669 9.94734C26.734 9.4999 26.9176 8.88036 26.9176 8.08872V3.75195H29.086V12.2878H26.952V11.1692H26.6422C26.5045 11.456 26.2464 11.7371 25.8678 12.0125C25.4892 12.2878 24.9155 12.4255 24.1469 12.4255Z" fill="#E8E8E8"/>
<path d="M17.1757 12.2877C16.6135 12.2877 16.1546 12.1156 15.7989 11.7714C15.4548 11.4157 15.2827 10.9453 15.2827 10.3602V5.54159H13.1487V3.75181H15.2827V1.10156H17.451V3.75181H19.7915V5.54159H17.451V9.98162C17.451 10.3258 17.6117 10.4979 17.9329 10.4979H19.585V12.2877H17.1757Z" fill="#E8E8E8"/>
<path d="M10.1967 12.2875V3.75165H12.3651V12.2875H10.1967ZM11.2809 2.75351C10.8908 2.75351 10.5581 2.6273 10.2828 2.3749C10.0189 2.12249 9.88696 1.78978 9.88696 1.37675C9.88696 0.963728 10.0189 0.631012 10.2828 0.378607C10.5581 0.126202 10.8908 0 11.2809 0C11.6825 0 12.0152 0.126202 12.2791 0.378607C12.5429 0.631012 12.6749 0.963728 12.6749 1.37675C12.6749 1.78978 12.5429 2.12249 12.2791 2.3749C12.0152 2.6273 11.6825 2.75351 11.2809 2.75351Z" fill="#E8E8E8"/>
<path d="M4.73259 12.5285C3.80328 12.5285 2.98296 12.3621 2.27164 12.0294C1.56032 11.6967 1.00389 11.2205 0.602338 10.601C0.200785 9.98146 0 9.23572 0 8.36377V7.88191H2.23723V8.36377C2.23723 9.08657 2.46095 9.63153 2.90839 9.99867C3.35583 10.3543 3.9639 10.5322 4.73259 10.5322C5.51275 10.5322 6.09213 10.3773 6.47074 10.0675C6.86082 9.75774 7.05587 9.36192 7.05587 8.88006C7.05587 8.54734 6.95834 8.27773 6.7633 8.07121C6.57974 7.8647 6.30438 7.69834 5.93724 7.57214C5.58158 7.43447 5.14562 7.30826 4.62934 7.19353L4.23352 7.10749C3.40747 6.92392 2.69615 6.69446 2.09955 6.41911C1.51443 6.13229 1.06126 5.75942 0.740014 5.3005C0.430244 4.84158 0.275352 4.24499 0.275352 3.51072C0.275352 2.77645 0.447447 2.15118 0.791636 1.63489C1.1473 1.10714 1.64063 0.705586 2.27164 0.430236C2.91413 0.143412 3.66561 0 4.52608 0C5.38655 0 6.1495 0.149148 6.81493 0.447445C7.49184 0.734268 8.01959 1.17024 8.3982 1.75536C8.78828 2.32901 8.98331 3.0518 8.98331 3.92375V4.44003H6.74609V3.92375C6.74609 3.46483 6.65431 3.09769 6.47074 2.82234C6.29864 2.53552 6.04624 2.32901 5.71353 2.2028C5.38081 2.06513 4.985 1.99629 4.52608 1.99629C3.83771 1.99629 3.32716 2.12823 2.99444 2.39211C2.6732 2.64451 2.51258 2.99444 2.51258 3.44188C2.51258 3.74018 2.58715 3.99258 2.7363 4.1991C2.89692 4.40561 3.13211 4.5777 3.44188 4.71538C3.75165 4.85305 4.14747 4.97352 4.62934 5.07678L5.02515 5.16282C5.88563 5.34639 6.63136 5.58159 7.26237 5.86841C7.90486 6.15523 8.40393 6.53384 8.75959 7.00423C9.11525 7.47462 9.29309 8.07695 9.29309 8.81122C9.29309 9.54549 9.10378 10.1937 8.72517 10.7559C8.35804 11.3066 7.83029 11.7426 7.14191 12.0638C6.46501 12.3736 5.6619 12.5285 4.73259 12.5285Z" fill="#E8E8E8"/>
</svg>
