<svg width="112" height="187" viewBox="0 0 112 187" fill="none" xmlns="http://www.w3.org/2000/svg">
<path fill-rule="evenodd" clip-rule="evenodd" d="M49.8449 0.307582C49.4107 0.474556 48.675 0.618996 48.2097 0.628461C47.7447 0.637925 47.3639 0.74248 47.3639 0.860781C47.3639 0.979082 46.9902 1.14583 46.5333 1.23146C46.0765 1.31708 45.4928 1.60822 45.2364 1.87817C44.98 2.14812 44.5925 2.43452 44.3755 2.51429C44.1585 2.59406 43.9808 2.7572 43.9808 2.87663C43.9808 2.99606 43.7571 3.16483 43.4839 3.25159C42.8599 3.44943 42.504 3.80073 42.3104 4.40958C42.2272 4.6712 42.0109 4.94228 41.8296 5.01168C41.6482 5.08131 41.4998 5.25639 41.4998 5.40106C41.4998 5.54572 41.2608 5.8853 40.9689 6.15571C40.6768 6.42611 40.3676 7.02077 40.2819 7.47707C40.1962 7.9336 40.0293 8.30698 39.9109 8.30698C39.7925 8.30698 39.6955 8.71574 39.6955 9.21531C39.6955 9.81492 39.5805 10.1678 39.3572 10.2534C39.0852 10.3578 39.0189 10.8639 39.0189 12.8378C39.0189 14.8694 39.0771 15.2924 39.3572 15.2924C39.6078 15.2924 39.6955 15.5553 39.6955 16.3064C39.6955 16.8641 39.7889 17.3204 39.9032 17.3204C40.0173 17.3204 40.1777 17.6246 40.2594 17.9964C40.341 18.3682 40.4996 18.6724 40.6112 18.6724C40.7231 18.6724 40.8782 18.9259 40.9561 19.2357C41.0339 19.5456 41.1881 19.7991 41.2987 19.7991C41.4094 19.7991 41.4998 19.9512 41.4998 20.1371C41.4998 20.323 41.641 20.4751 41.8138 20.4751C41.9863 20.4751 42.1909 20.727 42.2683 21.035C42.3551 21.3805 42.6235 21.6486 42.9693 21.7354C43.2776 21.8127 43.5297 22.017 43.5297 22.1894C43.5297 22.362 43.645 22.5031 43.7857 22.5031C43.9267 22.5031 44.2769 22.7566 44.5645 23.0664C44.8519 23.3763 45.2948 23.6298 45.5488 23.6298C45.8091 23.6298 46.0107 23.7774 46.0107 23.9678C46.0107 24.1931 46.2362 24.3058 46.6873 24.3058C47.1384 24.3058 47.3639 24.4184 47.3639 24.6438C47.3639 24.854 47.5769 24.9818 47.9278 24.9818H48.4917V58.2187V91.4556H47.9208C47.6066 91.4556 47.2913 91.6077 47.2201 91.7936C47.1486 91.9795 46.8544 92.1316 46.5664 92.1316C46.2786 92.1316 45.8907 92.2837 45.7046 92.4697C45.5186 92.6556 45.2069 92.8077 45.0118 92.8077C44.8169 92.8077 44.6574 92.907 44.6574 93.0287C44.6574 93.1502 44.4037 93.3133 44.0936 93.391C43.7835 93.4688 43.5297 93.6736 43.5297 93.846C43.5297 94.0186 43.3775 94.1597 43.1914 94.1597C43.0053 94.1597 42.8531 94.3118 42.8531 94.4977C42.8531 94.6836 42.7009 94.8357 42.5148 94.8357C42.3287 94.8357 42.1765 94.9878 42.1765 95.1737C42.1765 95.3596 42.077 95.5117 41.9552 95.5117C41.8336 95.5117 41.6704 95.7652 41.5925 96.075C41.5147 96.3848 41.3097 96.6384 41.1372 96.6384C40.9644 96.6384 40.8232 96.7905 40.8232 96.9764C40.8232 97.1623 40.7217 97.3144 40.5977 97.3144C40.4736 97.3144 40.3721 97.1623 40.3721 96.9764C40.3721 96.7905 40.2199 96.6384 40.0338 96.6384C39.8477 96.6384 39.6955 96.4862 39.6955 96.3003C39.6955 96.1144 39.5433 95.9623 39.3572 95.9623C39.1711 95.9623 39.0189 95.8102 39.0189 95.6243C39.0189 95.4384 38.8666 95.2863 38.6806 95.2863C38.4945 95.2863 38.3422 95.1342 38.3422 94.9483C38.3422 94.7624 38.2329 94.6103 38.0993 94.6103C37.7838 94.6103 36.5379 93.3656 36.5379 93.0503C36.5379 92.9169 36.3857 92.8077 36.1996 92.8077C36.0135 92.8077 35.8613 92.6556 35.8613 92.4697C35.8613 92.2837 35.709 92.1316 35.523 92.1316C35.3369 92.1316 35.1846 91.9795 35.1846 91.7936C35.1846 91.6077 35.075 91.4556 34.9411 91.4556C34.6235 91.4556 32.027 88.8616 32.027 88.5443C32.027 88.4105 31.8748 88.301 31.6887 88.301C31.5027 88.301 31.3504 88.1488 31.3504 87.9629C31.3504 87.777 31.1982 87.6249 31.0121 87.6249C30.826 87.6249 30.6738 87.4728 30.6738 87.2869C30.6738 87.101 30.5642 86.9489 30.4304 86.9489C30.1135 86.9489 28.1928 85.03 28.1928 84.7134C28.1928 84.5798 28.0406 84.4703 27.8545 84.4703C27.6684 84.4703 27.5162 84.3182 27.5162 84.1323C27.5162 83.9463 27.364 83.7942 27.1779 83.7942C26.8797 83.7942 26.8396 81.4032 26.8396 63.6268V43.4593H27.5162C27.8883 43.4593 28.1928 43.3599 28.1928 43.2382C28.1928 43.1168 28.4466 42.9536 28.7567 42.8759C29.0668 42.7981 29.3205 42.644 29.3205 42.5336C29.3205 42.4229 29.5163 42.3326 29.7556 42.3326C29.9947 42.3326 30.3427 42.1805 30.5288 41.9946C30.7148 41.8087 30.9758 41.6566 31.1089 41.6566C31.2417 41.6566 31.3504 41.5045 31.3504 41.3186C31.3504 41.1327 31.5027 40.9806 31.6887 40.9806C31.8748 40.9806 32.027 40.8285 32.027 40.6426C32.027 40.4567 32.1793 40.3046 32.3654 40.3046C32.5514 40.3046 32.7037 40.1525 32.7037 39.9666C32.7037 39.7807 32.8559 39.6286 33.042 39.6286C33.2281 39.6286 33.3803 39.5134 33.3803 39.3728C33.3803 39.232 33.634 38.882 33.9442 38.5947C34.2543 38.3076 34.508 37.8651 34.508 37.6114C34.508 37.3513 34.6557 37.1499 34.8463 37.1499C35.0696 37.1499 35.1846 36.9266 35.1846 36.4926C35.1846 36.1311 35.3116 35.7931 35.4666 35.7415C35.6781 35.671 35.7485 34.6437 35.7485 31.6292C35.7485 28.6146 35.6781 27.5873 35.4666 27.5168C35.3116 27.4652 35.1846 27.1272 35.1846 26.7658C35.1846 26.4043 35.0852 26.1085 34.9634 26.1085C34.8418 26.1085 34.6785 25.855 34.6007 25.5451C34.5229 25.2353 34.3686 24.9818 34.2581 24.9818C34.1474 24.9818 34.0569 24.8288 34.0569 24.6415C34.0569 24.4545 33.8539 24.1278 33.6058 23.9155C33.3578 23.7032 33.1548 23.4002 33.1548 23.2417C33.1548 23.0833 33.046 22.9538 32.9132 22.9538C32.6008 22.9538 32.027 22.3805 32.027 22.0684C32.027 21.9357 31.8748 21.8271 31.6887 21.8271C31.5027 21.8271 31.3504 21.675 31.3504 21.4891C31.3504 21.2777 31.1366 21.1511 30.7796 21.1511C30.4654 21.1511 30.1501 20.999 30.0788 20.8131C30.0073 20.6272 29.706 20.4751 29.4092 20.4751C29.0799 20.4751 28.8695 20.3433 28.8695 20.1371C28.8695 19.8867 28.6062 19.7991 27.8545 19.7991C27.1028 19.7991 26.8396 19.7114 26.8396 19.4611C26.8396 19.1751 26.3007 19.1231 23.3437 19.1231C20.3866 19.1231 19.8477 19.1751 19.8477 19.4611C19.8477 19.6864 19.6222 19.7991 19.1711 19.7991C18.72 19.7991 18.4945 19.9117 18.4945 20.1371C18.4945 20.3624 18.269 20.4751 17.8179 20.4751C17.4457 20.4751 17.1412 20.5745 17.1412 20.6961C17.1412 20.8176 16.8875 20.9807 16.5774 21.0585C16.2673 21.1362 16.0135 21.2903 16.0135 21.4008C16.0135 21.5114 15.8613 21.6018 15.6752 21.6018C15.4891 21.6018 15.3369 21.7539 15.3369 21.9398C15.3369 22.1257 15.1847 22.2778 14.9986 22.2778C14.8125 22.2778 14.6603 22.4299 14.6603 22.6158C14.6603 22.8017 14.508 22.9538 14.322 22.9538C14.1359 22.9538 13.9836 23.0599 13.9836 23.1899C13.9836 23.3197 13.7369 23.6543 13.4353 23.9335C13.1338 24.2127 12.8183 24.715 12.7344 25.0496C12.6502 25.384 12.491 25.6578 12.3805 25.6578C12.2697 25.6578 12.1793 25.9113 12.1793 26.2211C12.1793 26.5717 12.0514 26.7845 11.841 26.7845C11.5904 26.7845 11.5027 27.0474 11.5027 27.7985C11.5027 28.5495 11.4149 28.8125 11.1644 28.8125C10.6684 28.8125 10.6684 33.6446 11.1644 34.1401C11.3504 34.326 11.5027 34.7751 11.5027 35.1379C11.5027 35.5009 11.596 35.7979 11.7104 35.7979C11.8245 35.7979 11.9849 36.1021 12.0665 36.4739C12.1482 36.8457 12.2975 37.1499 12.3983 37.1499C12.4991 37.1499 12.6502 37.4237 12.7344 37.7581C12.8183 38.0927 13.1218 38.5839 13.409 38.8496C13.6961 39.1155 14.0003 39.5515 14.0851 39.8187C14.1702 40.086 14.3341 40.3046 14.4498 40.3046C14.5655 40.3046 14.6603 40.4567 14.6603 40.6426C14.6603 40.84 14.8712 40.9846 15.1677 40.99C15.447 40.9954 15.9242 41.2996 16.2285 41.666C16.5476 42.0507 17.001 42.3326 17.2998 42.3326C17.5847 42.3326 17.8179 42.4259 17.8179 42.5401C17.8179 42.6541 18.1223 42.8144 18.4945 42.8959C18.8666 42.9775 19.1711 43.1377 19.1711 43.2517C19.1711 43.366 19.4233 43.4593 19.7316 43.4593H20.2921L20.3518 64.8276L20.4116 86.1959L21.4651 87.2484C22.0445 87.8273 22.6282 88.301 22.762 88.301C22.8957 88.301 23.0053 88.4531 23.0053 88.639C23.0053 88.8249 23.1576 88.977 23.3437 88.977C23.5297 88.977 23.682 89.0865 23.682 89.2203C23.682 89.5376 26.2784 92.1316 26.596 92.1316C26.73 92.1316 26.8396 92.2837 26.8396 92.4697C26.8396 92.6556 26.9918 92.8077 27.1779 92.8077C27.364 92.8077 27.5162 92.9598 27.5162 93.1457C27.5162 93.3316 27.6684 93.4837 27.8545 93.4837C28.0406 93.4837 28.1928 93.5932 28.1928 93.7268C28.1928 94.0434 30.1135 95.9623 30.4304 95.9623C30.5642 95.9623 30.6738 96.1144 30.6738 96.3003C30.6738 96.4862 30.826 96.6384 31.0121 96.6384C31.1982 96.6384 31.3504 96.7479 31.3504 96.8817C31.3504 97.199 33.9469 99.793 34.2644 99.793C34.3984 99.793 34.508 99.9451 34.508 100.131C34.508 100.317 34.6603 100.469 34.8463 100.469C35.0324 100.469 35.1846 100.579 35.1846 100.712C35.1846 101.03 37.7811 103.624 38.0987 103.624C38.2326 103.624 38.3422 103.776 38.3422 103.962C38.3422 104.148 38.4945 104.3 38.6806 104.3C38.8935 104.3 39.0189 104.514 39.0189 104.879C39.0189 105.198 39.1711 105.611 39.3572 105.797C39.5561 105.995 39.6955 106.546 39.6955 107.132C39.6955 107.681 39.7889 108.13 39.9032 108.13C40.0173 108.13 40.1777 108.435 40.2594 108.806C40.341 109.178 40.4903 109.482 40.5911 109.482C40.6919 109.482 40.8381 109.736 40.9159 110.046C40.9937 110.356 41.157 110.609 41.2786 110.609C41.4004 110.609 41.4998 110.739 41.4998 110.897C41.4998 111.22 42.287 111.961 42.63 111.961C42.7527 111.961 42.8531 112.113 42.8531 112.299C42.8531 112.485 43.0053 112.637 43.1914 112.637C43.3775 112.637 43.5297 112.789 43.5297 112.975C43.5297 113.161 43.682 113.313 43.868 113.313C44.0541 113.313 44.2064 113.465 44.2064 113.651C44.2064 113.837 44.3586 113.989 44.5447 113.989C44.7307 113.989 44.883 114.091 44.883 114.214C44.883 114.338 45.1399 114.44 45.4538 114.44C45.768 114.44 46.0833 114.592 46.1546 114.778C46.2261 114.964 46.5202 115.116 46.8082 115.116C47.096 115.116 47.5038 115.288 47.7138 115.498C48.0422 115.826 48.6135 115.879 51.7668 115.875C54.8939 115.871 55.4932 115.814 55.8148 115.493C56.0225 115.286 56.3881 115.116 56.6272 115.116C56.8665 115.116 57.0623 115.014 57.0623 114.89C57.0623 114.767 57.2073 114.665 57.3846 114.665C57.5616 114.665 57.8456 114.526 58.0152 114.357C58.185 114.187 58.57 113.97 58.8711 113.875C59.525 113.668 61.2502 111.947 61.457 111.296C61.5377 111.042 61.6981 110.834 61.8138 110.834C61.9295 110.834 62.0242 110.679 62.0242 110.489C62.0242 110.3 62.1765 110.086 62.3625 110.015C62.5486 109.943 62.7008 109.642 62.7008 109.346C62.7008 109.017 62.8328 108.806 63.0392 108.806C63.2521 108.806 63.3775 108.592 63.3775 108.227C63.3775 107.908 63.5297 107.495 63.7158 107.31C63.9147 107.111 64.0541 106.56 64.0541 105.974C64.0541 105.425 64.1556 104.976 64.2796 104.976C64.4037 104.976 64.5052 104.824 64.5052 104.638C64.5052 104.452 64.6574 104.3 64.8435 104.3C65.0296 104.3 65.1818 104.148 65.1818 103.962C65.1818 103.776 65.3341 103.624 65.5201 103.624C65.7062 103.624 65.8584 103.472 65.8584 103.286C65.8584 103.1 65.9647 102.948 66.0948 102.948C66.2247 102.948 66.5662 102.694 66.8535 102.384C67.1411 102.075 67.4914 101.821 67.6323 101.821C67.7731 101.821 67.8883 101.669 67.8883 101.483C67.8883 101.297 67.9898 101.145 68.1139 101.145C68.2379 101.145 68.3394 100.993 68.3394 100.807C68.3394 100.621 68.4409 100.469 68.565 100.469C68.689 100.469 68.9935 100.266 69.2416 100.018C69.4897 99.7705 69.6927 99.4663 69.6927 99.3424C69.6927 99.2184 69.8449 99.117 70.031 99.117C70.2171 99.117 70.3693 98.9649 70.3693 98.779C70.3693 98.5931 70.4789 98.441 70.6126 98.441C70.9295 98.441 72.8503 96.5221 72.8503 96.2055C72.8503 96.0719 73.0025 95.9623 73.1886 95.9623C73.3746 95.9623 73.5269 95.8102 73.5269 95.6243C73.5269 95.4384 73.6791 95.2863 73.8652 95.2863C74.0513 95.2863 74.2035 95.1342 74.2035 94.9483C74.2035 94.7624 74.305 94.6103 74.4291 94.6103C74.5531 94.6103 75.2636 94.0019 76.0079 93.2583C76.7521 92.5147 77.3611 91.8049 77.3611 91.681C77.3611 91.557 77.4592 91.4556 77.5792 91.4556C77.8629 91.4556 79.391 89.929 79.391 89.6455C79.391 89.5256 79.4997 89.4276 79.6325 89.4276C79.9449 89.4276 80.5187 88.8544 80.5187 88.5423C80.5187 88.4096 80.6168 88.301 80.7368 88.301C81.0688 88.301 82.4915 86.8074 82.6578 86.2842C82.7385 86.03 82.8991 85.8223 83.0148 85.8223C83.1436 85.8223 83.2252 77.5912 83.2252 64.6408V43.4593H83.7649C84.0618 43.4593 84.3631 43.3072 84.4346 43.1213C84.5059 42.9354 84.8212 42.7833 85.1353 42.7833C85.4493 42.7833 85.7062 42.69 85.7062 42.5757C85.7062 42.4617 86.0107 42.3015 86.3828 42.2199C86.755 42.1383 87.0594 41.9781 87.0594 41.8641C87.0594 41.7499 87.2117 41.6566 87.3978 41.6566C87.5838 41.6566 87.7361 41.5045 87.7361 41.3186C87.7361 41.1327 87.8883 40.9806 88.0744 40.9806C88.2605 40.9806 88.4127 40.8285 88.4127 40.6426C88.4127 40.4567 88.5649 40.3046 88.751 40.3046C88.9371 40.3046 89.0893 40.1894 89.0893 40.0488C89.0893 39.908 89.3311 39.5689 89.6268 39.2953C89.9225 39.0215 90.2337 38.579 90.3185 38.3117C90.4036 38.0445 90.5675 37.8259 90.6832 37.8259C90.7989 37.8259 90.8937 37.6823 90.8937 37.5066C90.8937 37.331 90.9976 37.1528 91.1246 37.1104C91.2516 37.0683 91.4194 36.6289 91.4977 36.1341C91.5759 35.6392 91.7512 35.1624 91.8872 35.0741C92.0403 34.9747 92.1619 33.7261 92.207 31.7831C92.2679 29.1687 92.2214 28.5937 91.9251 28.2978C91.73 28.1029 91.5703 27.5781 91.5703 27.1315C91.5703 26.6177 91.446 26.272 91.232 26.19C91.0459 26.1186 90.8937 25.8175 90.8937 25.521C90.8937 25.192 90.7617 24.9818 90.5554 24.9818C90.3693 24.9818 90.217 24.8297 90.217 24.6438C90.217 24.4579 90.1155 24.3058 89.9915 24.3058C89.8675 24.3058 89.766 24.1618 89.766 23.9856C89.766 23.5689 87.797 21.6018 87.3799 21.6018C87.2036 21.6018 87.0594 21.5004 87.0594 21.3764C87.0594 21.2525 86.9072 21.1511 86.7211 21.1511C86.5351 21.1511 86.3828 20.999 86.3828 20.8131C86.3828 20.6028 86.1699 20.4751 85.819 20.4751C85.468 20.4751 85.2551 20.3473 85.2551 20.1371C85.2551 19.8867 84.9919 19.7991 84.2402 19.7991C83.4884 19.7991 83.2252 19.7114 83.2252 19.4611C83.2252 19.1751 82.6864 19.1231 79.7293 19.1231C76.7722 19.1231 76.2334 19.1751 76.2334 19.4611C76.2334 19.7056 75.9819 19.7991 75.3242 19.7991C74.7241 19.7991 74.3709 19.914 74.2852 20.1371C74.2137 20.323 73.9123 20.4751 73.6155 20.4751C73.2862 20.4751 73.0758 20.6069 73.0758 20.8131C73.0758 20.999 72.9236 21.1511 72.7375 21.1511C72.5514 21.1511 72.3992 21.2525 72.3992 21.3764C72.3992 21.5004 72.2469 21.6018 72.0609 21.6018C71.8748 21.6018 71.7225 21.7539 71.7225 21.9398C71.7225 22.1257 71.5703 22.2778 71.3842 22.2778C71.1982 22.2778 71.0459 22.4299 71.0459 22.6158C71.0459 22.8017 70.8937 22.9538 70.7076 22.9538C70.5215 22.9538 70.3693 23.1059 70.3693 23.2918C70.3693 23.4777 70.2171 23.6298 70.031 23.6298C69.8449 23.6298 69.6927 23.7819 69.6927 23.9678C69.6927 24.1537 69.6022 24.3058 69.4915 24.3058C69.381 24.3058 69.2267 24.5593 69.1489 24.8691C69.0711 25.1789 68.9159 25.4324 68.804 25.4324C68.6924 25.4324 68.5338 25.7367 68.4522 26.1085C68.3705 26.4803 68.2102 26.7845 68.0961 26.7845C67.9817 26.7845 67.8883 27.0918 67.8883 27.4675C67.8883 27.8667 67.7478 28.2045 67.55 28.2802C67.2717 28.387 67.2117 28.9657 67.2117 31.5406C67.2117 34.1732 67.2656 34.6712 67.55 34.6712C67.7943 34.6712 67.8883 34.9215 67.8883 35.5725C67.8883 36.0683 67.9878 36.4739 68.1096 36.4739C68.2312 36.4739 68.3944 36.7274 68.4723 37.0372C68.5501 37.347 68.7043 37.6005 68.8148 37.6005C68.9256 37.6005 69.016 37.7558 69.016 37.9455C69.016 38.1355 69.159 38.3455 69.334 38.4127C69.5088 38.4796 69.7139 38.7806 69.7894 39.0814C69.865 39.3825 70.0265 39.6286 70.148 39.6286C70.2698 39.6286 70.3693 39.7807 70.3693 39.9666C70.3693 40.1525 70.5215 40.3046 70.7076 40.3046C70.8937 40.3046 71.0459 40.4567 71.0459 40.6426C71.0459 40.8285 71.1982 40.9806 71.3842 40.9806C71.5703 40.9806 71.7225 41.0799 71.7225 41.2016C71.7225 41.3231 71.9688 41.4844 72.2702 41.5599C72.5713 41.6354 72.8726 41.8402 72.9396 42.0149C73.0068 42.1897 73.3185 42.3326 73.6327 42.3326C73.9466 42.3326 74.2035 42.4259 74.2035 42.5401C74.2035 42.6541 74.508 42.8144 74.8801 42.8959C75.2523 42.9775 75.5568 43.1267 75.5568 43.2274C75.5568 43.3281 75.8105 43.4741 76.1206 43.5519L76.6845 43.6932V63.4057C76.6845 74.5197 76.5983 83.1182 76.4871 83.1182C76.3786 83.1182 76.2289 83.4224 76.1545 83.7942C76.0751 84.1908 75.8768 84.4703 75.6752 84.4703C75.486 84.4703 75.3312 84.5534 75.3312 84.6553C75.3312 84.9281 73.3476 86.9489 73.0796 86.9489C72.9536 86.9489 72.8503 87.056 72.8503 87.1869C72.8503 87.4517 71.4968 88.7516 71.2212 88.7516C71.1249 88.7516 71.0459 88.8483 71.0459 88.9661C71.0459 89.246 68.8343 91.4556 68.5541 91.4556C68.4362 91.4556 68.3394 91.5534 68.3394 91.6733C68.3394 91.9676 67.0601 93.2583 66.7683 93.2583C66.6399 93.2583 66.5351 93.4104 66.5351 93.5963C66.5351 93.7822 66.3828 93.9343 66.1968 93.9343C66.0107 93.9343 65.8584 94.0287 65.8584 94.1443C65.8584 94.5107 63.0701 97.1819 62.9776 96.9042C62.9286 96.758 62.6943 96.6384 62.4566 96.6384C62.2189 96.6384 62.0242 96.4862 62.0242 96.3003C62.0242 96.1144 61.872 95.9623 61.6859 95.9623C61.4998 95.9623 61.3476 95.8528 61.3476 95.7192C61.3476 95.4026 59.4269 93.4837 59.11 93.4837C58.9762 93.4837 58.8666 93.3316 58.8666 93.1457C58.8666 92.9203 58.6411 92.8077 58.19 92.8077C57.7389 92.8077 57.5134 92.695 57.5134 92.4697C57.5134 92.2594 57.3005 92.1316 56.9495 92.1316C56.6394 92.1316 56.3857 92.0384 56.3857 91.9241C56.3857 91.8101 56.0812 91.6499 55.709 91.5683L55.0324 91.4198V58.2009C55.0324 28.8231 55.0714 24.9818 55.3707 24.9818C55.5568 24.9818 55.709 24.8297 55.709 24.6438C55.709 24.3997 55.9596 24.3058 56.6112 24.3058C57.2628 24.3058 57.5134 24.2118 57.5134 23.9678C57.5134 23.7801 57.7139 23.6298 57.9644 23.6298C58.2125 23.6298 58.4155 23.5304 58.4155 23.4087C58.4155 23.2873 58.6693 23.1241 58.9794 23.0464C59.2895 22.9686 59.5432 22.7638 59.5432 22.5914C59.5432 22.4188 59.6526 22.2778 59.7862 22.2778C60.1017 22.2778 61.3476 21.033 61.3476 20.7178C61.3476 20.5844 61.4998 20.4751 61.6859 20.4751C61.8975 20.4751 62.0242 20.2615 62.0242 19.9048C62.0242 19.5909 62.1765 19.2758 62.3625 19.2046C62.5486 19.1332 62.7008 18.8322 62.7008 18.5356C62.7008 18.2066 62.8328 17.9964 63.0392 17.9964C63.2521 17.9964 63.3775 17.7819 63.3775 17.4171C63.3775 17.0982 63.5297 16.6854 63.7158 16.4995C63.9882 16.2273 64.0541 15.4623 64.0541 12.5723C64.0541 9.53213 64.0025 8.98299 63.7158 8.98299C63.5029 8.98299 63.3775 8.76847 63.3775 8.40365C63.3775 8.0848 63.2252 7.67198 63.0392 7.48608C62.8531 7.30018 62.7008 6.95249 62.7008 6.71364C62.7008 6.47455 62.6061 6.27896 62.4904 6.27896C62.3747 6.27896 62.2107 6.06039 62.1257 5.79314C62.0409 5.52589 61.7297 5.08334 61.434 4.80955C61.1383 4.536 60.8965 4.19687 60.8965 4.05603C60.8965 3.91542 60.7443 3.80028 60.5582 3.80028C60.3721 3.80028 60.2199 3.64818 60.2199 3.46227C60.2199 3.27637 60.0676 3.12427 59.8816 3.12427C59.6955 3.12427 59.5432 3.02287 59.5432 2.89894C59.5432 2.775 59.391 2.6736 59.2049 2.6736C59.0189 2.6736 58.8666 2.52961 58.8666 2.3534C58.8666 2.17741 58.5621 1.9665 58.19 1.88493C57.8178 1.80336 57.5134 1.64315 57.5134 1.52913C57.5134 1.41488 57.2565 1.32159 56.9425 1.32159C56.6283 1.32159 56.313 1.16949 56.2418 0.983588C56.1628 0.778533 55.822 0.645585 55.375 0.645585C54.9697 0.645585 54.2065 0.493484 53.6791 0.307582C52.5156 -0.102527 50.9111 -0.102527 49.8449 0.307582ZM50.0705 6.72963C50.0705 6.85357 49.8747 6.95497 49.6354 6.95497C49.3963 6.95497 49.0663 7.08747 48.9024 7.24926C48.7386 7.41105 48.4267 7.61069 48.2097 7.69294C47.9928 7.77496 47.815 7.94667 47.815 8.07466C47.815 8.20242 47.6714 8.30698 47.4957 8.30698C47.32 8.30698 47.0414 8.61118 46.8768 8.98299C46.7119 9.35479 46.4498 9.65899 46.294 9.65899C46.1314 9.65899 46.0107 9.93908 46.0107 10.3163C46.0107 10.6777 45.8882 11.0142 45.7387 11.064C45.3952 11.1784 45.3636 14.3525 45.704 14.5744C45.8345 14.6594 46.0096 15.008 46.093 15.3487C46.1765 15.6894 46.3445 15.9684 46.4661 15.9684C46.5879 15.9684 46.6873 16.1205 46.6873 16.3064C46.6873 16.4923 46.8396 16.6444 47.0256 16.6444C47.2117 16.6444 47.3639 16.7965 47.3639 16.9824C47.3639 17.1683 47.5162 17.3204 47.7023 17.3204C47.8883 17.3204 48.0406 17.4725 48.0406 17.6584C48.0406 17.8443 48.1842 17.9964 48.3602 17.9964C48.5359 17.9964 48.7177 18.1106 48.7643 18.2503C48.811 18.3901 49.3776 18.555 50.0235 18.617C50.6697 18.6789 51.1982 18.8182 51.1982 18.9263C51.1982 19.0345 51.4519 19.1231 51.762 19.1231C52.0721 19.1231 52.3259 19.035 52.3259 18.9275C52.3259 18.8198 52.7465 18.6753 53.2605 18.6064C53.7745 18.5376 54.2568 18.3858 54.3319 18.2693C54.407 18.1525 54.7184 17.979 55.0236 17.8837C55.7365 17.6611 56.7267 16.6719 56.9495 15.9596C57.0449 15.6547 57.2262 15.3388 57.3525 15.2579C57.6661 15.0569 57.6546 10.5615 57.3399 10.3672C57.2068 10.285 57.0282 9.93999 56.943 9.60041C56.8577 9.26083 56.6974 8.98299 56.5868 8.98299C56.4761 8.98299 56.3857 8.83088 56.3857 8.64498C56.3857 8.45908 56.2334 8.30698 56.0473 8.30698C55.8613 8.30698 55.709 8.15488 55.709 7.96898C55.709 7.78308 55.5568 7.63097 55.3707 7.63097C55.1846 7.63097 55.0324 7.5307 55.0324 7.40834C55.0324 7.28576 54.6264 7.12082 54.1302 7.0415C53.634 6.96218 53.2281 6.80895 53.2281 6.70079C53.2281 6.59263 52.5176 6.5043 51.6493 6.5043C50.7471 6.5043 50.0705 6.60097 50.0705 6.72963ZM22.0468 25.6134C21.4574 25.6515 20.9755 25.7673 20.9755 25.871C20.9755 25.9748 20.7217 26.1233 20.4116 26.2011C20.1015 26.2788 19.8477 26.442 19.8477 26.5634C19.8477 26.6851 19.6955 26.7845 19.5094 26.7845C19.3234 26.7845 19.1711 26.9366 19.1711 27.1225C19.1711 27.3084 19.0189 27.4605 18.8328 27.4605C18.6264 27.4605 18.4945 27.6707 18.4945 27.9997C18.4945 28.2962 18.3423 28.5973 18.1562 28.6687C17.9613 28.7433 17.8179 29.0799 17.8179 29.4626C17.8179 29.8281 17.7152 30.1611 17.5898 30.2028C17.2495 30.3161 17.2057 32.4769 17.5416 32.5886C17.697 32.6405 17.8179 33.067 17.8179 33.5632C17.8179 34.1975 17.913 34.4459 18.1562 34.4459C18.3441 34.4459 18.4945 34.6462 18.4945 34.8965C18.4945 35.1469 18.6449 35.3472 18.8328 35.3472C19.0189 35.3472 19.1711 35.4558 19.1711 35.5885C19.1711 35.9477 19.765 36.4739 20.17 36.4739C20.3649 36.4739 20.5244 36.626 20.5244 36.8119C20.5244 37.0559 20.775 37.1499 21.4265 37.1499C21.9227 37.1499 22.3287 37.2513 22.3287 37.3752C22.3287 37.4991 22.8869 37.6005 23.5692 37.6005C24.2515 37.6005 24.8097 37.4991 24.8097 37.3752C24.8097 37.2513 25.1577 37.1499 25.5831 37.1499C26.0082 37.1499 26.5085 36.9978 26.6945 36.8119C26.8806 36.626 27.1416 36.4739 27.2746 36.4739C27.4075 36.4739 27.5162 36.3218 27.5162 36.1359C27.5162 35.95 27.6684 35.7979 27.8545 35.7979C28.0406 35.7979 28.1928 35.6827 28.1928 35.5421C28.1928 35.4013 28.472 35.0277 28.8131 34.712C29.4196 34.1504 29.4333 34.0808 29.4333 31.5796C29.4333 29.9446 29.3426 28.9637 29.1818 28.8607C29.0433 28.7721 28.8591 28.4718 28.7718 28.1928C28.6847 27.9138 28.519 27.6858 28.4033 27.6858C28.2876 27.6858 28.1928 27.5337 28.1928 27.3478C28.1928 27.1619 28.0406 27.0098 27.8545 27.0098C27.6684 27.0098 27.5162 26.8687 27.5162 26.6961C27.5162 26.5237 27.2381 26.3128 26.8982 26.2277C26.5583 26.1425 26.2286 25.994 26.1652 25.8975C26.0274 25.688 23.5464 25.5167 22.0468 25.6134ZM77.3611 25.8588C77.3611 25.9692 77.1074 26.1233 76.7973 26.2011C76.4871 26.2788 76.2334 26.442 76.2334 26.5634C76.2334 26.6851 76.0812 26.7845 75.8951 26.7845C75.709 26.7845 75.5568 26.9366 75.5568 27.1225C75.5568 27.3084 75.4045 27.4605 75.2185 27.4605C75.0324 27.4605 74.8801 27.6018 74.8801 27.7744C74.8801 27.947 74.7279 28.1466 74.5418 28.218C74.3558 28.2892 74.2035 28.5959 74.2035 28.8992C74.2035 29.2028 74.0768 29.4932 73.9216 29.5448C73.7281 29.6093 73.6397 30.192 73.6397 31.4038C73.6397 32.6157 73.7281 33.1984 73.9216 33.2628C74.0768 33.3144 74.2035 33.6525 74.2035 34.0139C74.2035 34.4479 74.3185 34.6712 74.5418 34.6712C74.7523 34.6712 74.8801 34.8839 74.8801 35.2345C74.8801 35.5852 75.008 35.7979 75.2185 35.7979C75.4045 35.7979 75.5568 35.95 75.5568 36.1359C75.5568 36.3421 75.7672 36.4739 76.0965 36.4739C76.3933 36.4739 76.6946 36.626 76.7661 36.8119C76.8419 37.0095 77.18 37.1499 77.5797 37.1499C77.9556 37.1499 78.2633 37.2513 78.2633 37.3752C78.2633 37.5023 78.9022 37.6005 79.7293 37.6005C80.5564 37.6005 81.1953 37.5023 81.1953 37.3752C81.1953 37.2513 81.503 37.1499 81.879 37.1499C82.2786 37.1499 82.6167 37.0095 82.6925 36.8119C82.764 36.626 83.0653 36.4739 83.3621 36.4739C83.6914 36.4739 83.9018 36.3421 83.9018 36.1359C83.9018 35.95 84.0541 35.7979 84.2402 35.7979C84.4262 35.7979 84.5785 35.6458 84.5785 35.4599C84.5785 35.274 84.6732 35.1219 84.7889 35.1219C84.9046 35.1219 85.0704 34.8938 85.1574 34.6149C85.2447 34.3359 85.429 34.0355 85.5675 33.947C85.7287 33.844 85.8113 32.9345 85.7978 31.414C85.7777 29.1768 85.7439 29.0117 85.2039 28.5117C84.8888 28.2201 84.5618 27.7631 84.477 27.4961C84.3922 27.2293 84.076 26.949 83.774 26.8732C83.4722 26.7975 83.2252 26.5945 83.2252 26.4221C83.2252 26.2495 83.073 26.1085 82.8869 26.1085C82.7008 26.1085 82.5486 26.0071 82.5486 25.8831C82.5486 25.7459 81.5337 25.6578 79.9549 25.6578C78.5283 25.6578 77.3611 25.7481 77.3611 25.8588ZM42.402 55.3766C42.402 55.4865 41.6733 55.6177 40.7824 55.6679C39.7905 55.724 39.1276 55.8649 39.0721 56.0314C39.0159 56.1993 38.5132 56.3034 37.7597 56.3034C36.8241 56.3034 36.5379 56.3825 36.5379 56.6414C36.5379 56.8917 36.2747 56.9794 35.523 56.9794C34.7712 56.9794 34.508 57.067 34.508 57.3174C34.508 57.5598 34.2601 57.6554 33.63 57.6554C33.0576 57.6554 32.7068 57.773 32.622 57.9934C32.5508 58.1793 32.2355 58.3314 31.9213 58.3314H31.3504V70.1615C31.3504 80.5269 31.3924 81.9916 31.6887 81.9916C31.8748 81.9916 32.027 82.1437 32.027 82.3296C32.027 82.5155 32.1358 82.6676 32.2686 82.6676C32.581 82.6676 33.1548 83.2408 33.1548 83.5529C33.1548 83.6856 33.307 83.7942 33.4931 83.7942C33.6791 83.7942 33.8314 83.9463 33.8314 84.1323C33.8314 84.3182 33.9836 84.4703 34.1697 84.4703C34.3558 84.4703 34.508 84.6224 34.508 84.8083C34.508 84.9942 34.6603 85.1463 34.8463 85.1463C35.0324 85.1463 35.1846 85.2984 35.1846 85.4843C35.1846 85.6702 35.3369 85.8223 35.523 85.8223C35.709 85.8223 35.8613 85.9316 35.8613 86.0649C35.8613 86.3802 37.1072 87.6249 37.4227 87.6249C37.5562 87.6249 37.6656 87.777 37.6656 87.9629C37.6656 88.1488 37.8179 88.301 38.0039 88.301C38.19 88.301 38.3422 88.4531 38.3422 88.639C38.3422 88.8249 38.4945 88.977 38.6806 88.977C38.8666 88.977 39.0189 89.1291 39.0189 89.315C39.0189 89.5009 39.1711 89.653 39.3572 89.653C39.5433 89.653 39.6955 89.8051 39.6955 89.991C39.6955 90.2145 39.9192 90.329 40.3561 90.329C40.7192 90.329 41.1687 90.1769 41.3548 89.991C41.5409 89.8051 41.8018 89.653 41.9349 89.653C42.0678 89.653 42.1774 89.5263 42.1785 89.3713C42.1799 89.2165 42.6366 88.8895 43.1934 88.6448L44.2064 88.2V72.0448C44.2064 63.1594 44.1448 55.7292 44.0694 55.5332C43.9237 55.1535 42.402 55.0106 42.402 55.3766ZM59.5432 71.6262C59.5432 87.7752 59.5516 88.084 59.9943 88.5263C60.2424 88.7742 60.5469 88.977 60.671 88.977C60.795 88.977 60.8965 89.0763 60.8965 89.198C60.8965 89.3195 61.1502 89.4826 61.4604 89.5603C61.7705 89.6381 62.0242 89.8429 62.0242 90.0153C62.0242 90.6072 63.2954 90.3763 64.0194 89.653C64.3915 89.2812 64.8054 88.977 64.9389 88.977C65.0724 88.977 65.1818 88.8249 65.1818 88.639C65.1818 88.4531 65.3341 88.301 65.5201 88.301C65.7062 88.301 65.8584 88.1488 65.8584 87.9629C65.8584 87.777 66.0107 87.6249 66.1968 87.6249C66.3828 87.6249 66.5351 87.4728 66.5351 87.2869C66.5351 87.101 66.6873 86.9489 66.8734 86.9489C67.0595 86.9489 67.2117 86.7968 67.2117 86.6109C67.2117 86.425 67.3639 86.2729 67.55 86.2729C67.7361 86.2729 67.8883 86.1643 67.8883 86.0316C67.8883 85.7195 68.4621 85.1463 68.7745 85.1463C68.9073 85.1463 69.016 84.9942 69.016 84.8083C69.016 84.6224 69.1683 84.4703 69.3544 84.4703C69.5404 84.4703 69.6927 84.3182 69.6927 84.1323C69.6927 83.9463 69.8449 83.7942 70.031 83.7942C70.2171 83.7942 70.3693 83.6421 70.3693 83.4562C70.3693 83.2703 70.5215 83.1182 70.7076 83.1182C70.8937 83.1182 71.0459 82.9661 71.0459 82.7802C71.0459 82.5943 71.1982 82.4422 71.3842 82.4422C71.5947 82.4422 71.7225 82.2295 71.7225 81.8789C71.7225 81.5691 71.824 81.3156 71.9481 81.3156C72.0954 81.3156 72.1736 77.5225 72.1736 70.3868C72.1736 63.2511 72.0954 59.4581 71.9481 59.4581C71.824 59.4581 71.7225 59.2046 71.7225 58.8947C71.7225 58.422 71.6163 58.3314 71.0619 58.3314C70.6988 58.3314 70.2493 58.1793 70.0632 57.9934C69.8772 57.8075 69.4608 57.6554 69.1378 57.6554C68.8148 57.6554 68.4923 57.5033 68.4211 57.3174C68.3369 57.0986 67.9873 56.9794 67.4291 56.9794C66.9553 56.9794 66.4151 56.8273 66.229 56.6414C66.0371 56.4496 65.4861 56.3034 64.9563 56.3034C64.4265 56.3034 63.8755 56.1571 63.6835 55.9654C63.4589 55.7409 62.8959 55.6274 62.0082 55.6274C61.2671 55.6274 60.671 55.5269 60.671 55.402C60.671 55.2781 60.4172 55.1767 60.1071 55.1767H59.5432V71.6262ZM15.1129 69.7667C14.642 69.9497 12.8559 71.7638 12.8559 72.059C12.8559 72.1926 12.7037 72.3022 12.5176 72.3022C12.3315 72.3022 12.1793 72.4543 12.1793 72.6402C12.1793 72.8261 12.0381 72.9782 11.8653 72.9782C11.6928 72.9782 11.4878 73.2317 11.41 73.5415C11.3322 73.8513 11.1689 74.1048 11.0473 74.1048C10.9255 74.1048 10.826 74.2569 10.826 74.4428C10.826 74.6287 10.6738 74.7808 10.4877 74.7808C10.2999 74.7808 10.1494 74.9812 10.1494 75.2315C10.1494 75.4794 10.0547 75.6822 9.93898 75.6822C9.82328 75.6822 9.65706 75.9102 9.56932 76.1892C9.48181 76.4682 9.18229 76.9085 8.90397 77.168C8.62565 77.4276 8.32839 77.8585 8.24358 78.1257C8.15855 78.393 7.99458 78.6115 7.87888 78.6115C7.76318 78.6115 7.66845 78.8071 7.66845 79.0462C7.66845 79.2851 7.51621 79.6328 7.33013 79.8187C7.14406 80.0046 6.99182 80.2653 6.99182 80.3982C6.99182 80.5309 6.83958 80.6396 6.65351 80.6396C6.42796 80.6396 6.31519 80.8649 6.31519 81.3156C6.31519 81.7662 6.20242 81.9916 5.97688 81.9916C5.76645 81.9916 5.63857 82.2043 5.63857 82.5549C5.63857 82.8647 5.54519 83.1182 5.43084 83.1182C5.31671 83.1182 5.15636 83.4224 5.07471 83.7942C4.99306 84.1661 4.8327 84.4703 4.71858 84.4703C4.60423 84.4703 4.51085 84.7269 4.51085 85.0406C4.51085 85.3545 4.35861 85.6695 4.17254 85.7407C3.95196 85.8254 3.83422 86.1758 3.83422 86.7477C3.83422 87.3773 3.73859 87.6249 3.49591 87.6249C3.2512 87.6249 3.1576 87.8762 3.1576 88.5333C3.1576 89.1329 3.04257 89.4858 2.81928 89.5714C2.60096 89.6552 2.48097 90.0038 2.48097 90.5543C2.48097 91.1048 2.36098 91.4534 2.14265 91.5372C1.92095 91.6222 1.80434 91.9735 1.80434 92.5564C1.80434 93.0458 1.70127 93.4805 1.57542 93.5224C1.44956 93.5643 1.28266 94.2825 1.20462 95.1185C1.12636 95.9545 0.991033 96.6384 0.903523 96.6384C0.816012 96.6384 0.675499 97.7792 0.590921 99.1734C0.506568 100.568 0.339216 101.742 0.218777 101.783C-0.075782 101.885 -0.0692416 106.328 0.225543 106.328C0.349591 106.328 0.451085 106.581 0.451085 106.891C0.451085 107.201 0.349591 107.454 0.225543 107.454C0.100141 107.454 0 108.055 0 108.806C0 109.55 0.0884132 110.158 0.196448 110.158C0.304483 110.158 0.464844 111.172 0.552806 112.412C0.640767 113.651 0.79143 114.665 0.887737 114.665C0.983818 114.665 1.12636 115.349 1.20462 116.185C1.28266 117.021 1.44956 117.739 1.57542 117.781C1.70127 117.823 1.80434 118.298 1.80434 118.837C1.80434 119.406 1.94576 119.957 2.14265 120.154C2.32873 120.34 2.48097 120.843 2.48097 121.272C2.48097 121.758 2.60863 122.102 2.81928 122.183C3.04257 122.268 3.1576 122.621 3.1576 123.221C3.1576 123.878 3.2512 124.129 3.49591 124.129C3.72145 124.129 3.83422 124.355 3.83422 124.805C3.83422 125.177 3.93459 125.481 4.05706 125.481C4.17976 125.481 4.34485 125.887 4.42424 126.383C4.50363 126.878 4.64889 127.284 4.74722 127.284C4.84556 127.284 4.99306 127.588 5.07471 127.96C5.15636 128.332 5.30566 128.636 5.40648 128.636C5.5073 128.636 5.65345 128.889 5.73126 129.199C5.80907 129.509 5.97237 129.763 6.09394 129.763C6.21573 129.763 6.31519 129.958 6.31519 130.197C6.31519 130.436 6.46743 130.784 6.65351 130.97C6.83958 131.156 6.99182 131.416 6.99182 131.549C6.99182 131.682 7.0852 131.791 7.19955 131.791C7.31367 131.791 7.47403 132.095 7.55568 132.467C7.63732 132.838 7.84843 133.143 8.02458 133.143C8.20095 133.143 8.34508 133.295 8.34508 133.481C8.34508 133.667 8.43552 133.819 8.54626 133.819C8.65678 133.819 8.81105 134.072 8.88886 134.382C8.96667 134.692 9.12997 134.945 9.25153 134.945C9.37333 134.945 9.47279 135.101 9.47279 135.29C9.47279 135.48 9.62503 135.694 9.8111 135.765C9.99718 135.837 10.1494 136.138 10.1494 136.434C10.1494 136.763 10.2814 136.973 10.4877 136.973C10.6738 136.973 10.826 137.125 10.826 137.311C10.826 137.497 10.9783 137.649 11.1644 137.649C11.3504 137.649 11.5027 137.759 11.5027 137.892C11.5027 138.025 11.8072 138.439 12.1793 138.811C12.5514 139.183 12.8559 139.631 12.8559 139.807C12.8559 139.984 13.0082 140.128 13.1942 140.128C13.3803 140.128 13.5326 140.28 13.5326 140.466C13.5326 140.652 13.6848 140.804 13.8709 140.804C14.0569 140.804 14.2092 140.956 14.2092 141.142C14.2092 141.328 14.3107 141.48 14.4347 141.48C14.5588 141.48 14.6603 141.632 14.6603 141.818C14.6603 142.004 14.7755 142.156 14.9163 142.156C15.0572 142.156 15.4075 142.41 15.6951 142.719C15.9824 143.029 16.3239 143.283 16.4538 143.283C16.5839 143.283 16.6902 143.424 16.6902 143.596C16.6902 143.769 16.9439 143.974 17.254 144.051C17.5641 144.129 17.8179 144.292 17.8179 144.414C17.8179 144.535 17.9701 144.635 18.1562 144.635C18.3423 144.635 18.4945 144.787 18.4945 144.973C18.4945 145.159 18.6467 145.311 18.8328 145.311C19.0189 145.311 19.1711 145.463 19.1711 145.649C19.1711 145.835 19.3234 145.987 19.5094 145.987C19.6955 145.987 19.8477 146.139 19.8477 146.325C19.8477 146.511 20 146.663 20.1861 146.663C20.3721 146.663 20.5244 146.753 20.5244 146.864C20.5244 146.974 20.7781 147.128 21.0882 147.206C21.3984 147.284 21.6521 147.447 21.6521 147.568C21.6521 147.69 21.8043 147.789 21.9904 147.789C22.1765 147.789 22.3287 147.942 22.3287 148.127C22.3287 148.313 22.481 148.465 22.667 148.465C22.8531 148.465 23.0053 148.618 23.0053 148.803C23.0053 148.989 23.1576 149.141 23.3437 149.141C23.5297 149.141 23.682 149.294 23.682 149.479C23.682 149.665 23.7916 149.817 23.9253 149.817C24.2422 149.817 26.1629 151.736 26.1629 152.053C26.1629 152.187 26.3152 152.296 26.5013 152.296C26.6873 152.296 26.8396 152.448 26.8396 152.634C26.8396 152.82 26.9918 152.972 27.1779 152.972C27.364 152.972 27.5162 153.124 27.5162 153.31C27.5162 153.496 27.6157 153.648 27.7375 153.648C27.859 153.648 28.0205 153.894 28.0961 154.195C28.1716 154.496 28.3766 154.797 28.5514 154.864C28.7265 154.931 28.8695 155.141 28.8695 155.331C28.8695 155.521 28.9689 155.676 29.0907 155.676C29.2123 155.676 29.3756 155.93 29.4534 156.239C29.5312 156.549 29.6855 156.803 29.796 156.803C29.9067 156.803 29.9972 156.955 29.9972 157.141C29.9972 157.327 30.1494 157.479 30.3355 157.479C30.561 157.479 30.6738 157.704 30.6738 158.155C30.6738 158.527 30.7733 158.831 30.895 158.831C31.0166 158.831 31.186 159.109 31.2715 159.448C31.3567 159.788 31.5615 160.201 31.7269 160.366C31.892 160.531 32.027 160.919 32.027 161.229C32.027 161.539 32.1793 161.945 32.3654 162.13C32.5514 162.316 32.7037 162.664 32.7037 162.903C32.7037 163.142 32.7921 163.338 32.9004 163.338C33.0086 163.338 33.162 163.743 33.2414 164.239C33.3208 164.735 33.4859 165.14 33.6086 165.14C33.731 165.14 33.8314 165.693 33.8314 166.368C33.8314 167.191 33.9367 167.656 34.1499 167.777C34.3889 167.912 34.4873 168.626 34.5446 170.642C34.5982 172.534 34.704 173.356 34.9027 173.422C35.1199 173.494 35.1846 175.064 35.1846 180.258V187L56.3293 186.943L77.4739 186.885L77.5323 175.675C77.57 168.461 77.6706 164.464 77.8142 164.464C77.9371 164.464 78.0377 164.312 78.0377 164.126C78.0377 163.832 79.1422 163.788 86.6244 163.788C93.9563 163.788 95.2606 163.739 95.5495 163.45C95.7356 163.264 96.1851 163.112 96.5482 163.112C96.9116 163.112 97.2089 163.019 97.2089 162.905C97.2089 162.791 97.5133 162.63 97.8855 162.549C98.2576 162.467 98.5621 162.307 98.5621 162.193C98.5621 162.079 98.7144 161.986 98.9004 161.986C99.0865 161.986 99.2387 161.833 99.2387 161.648C99.2387 161.462 99.391 161.31 99.5771 161.31C99.7631 161.31 99.9154 161.157 99.9154 160.972C99.9154 160.786 100.025 160.634 100.159 160.634C100.475 160.634 102.266 158.835 102.459 158.324C102.541 158.107 102.712 157.93 102.84 157.93C102.968 157.93 103.073 157.719 103.073 157.463C103.073 157.206 103.225 156.844 103.411 156.658C103.597 156.472 103.75 156.016 103.75 155.644C103.75 155.272 103.911 154.806 104.109 154.609C104.418 154.301 104.458 153.677 104.391 150.222C104.338 147.47 104.23 146.144 104.05 146.033C103.876 145.925 103.761 144.809 103.712 142.736C103.658 140.484 103.557 139.575 103.355 139.508C103.149 139.44 103.073 138.655 103.073 136.617V133.819H104.633C105.491 133.819 106.227 133.921 106.269 134.047C106.311 134.172 107.182 134.339 108.205 134.418C109.84 134.544 110.065 134.517 110.065 134.19C110.065 133.986 110.194 133.819 110.353 133.819C110.667 133.819 111.418 133.036 111.418 132.708C111.418 132.596 111.512 132.47 111.627 132.429C112.041 132.28 112.14 131.192 111.773 130.825C111.578 130.63 111.418 130.21 111.418 129.891C111.418 129.526 111.293 129.312 111.08 129.312C110.854 129.312 110.741 129.087 110.741 128.636C110.741 128.185 110.629 127.96 110.403 127.96C110.197 127.96 110.065 127.75 110.065 127.421C110.065 127.124 109.913 126.823 109.726 126.752C109.54 126.68 109.388 126.467 109.388 126.277C109.388 126.087 109.298 125.932 109.187 125.932C109.076 125.932 108.922 125.678 108.844 125.369C108.767 125.059 108.603 124.805 108.482 124.805C108.36 124.805 108.26 124.549 108.26 124.235C108.26 123.921 108.108 123.606 107.922 123.535C107.736 123.463 107.584 123.162 107.584 122.866C107.584 122.537 107.452 122.327 107.246 122.327C107.02 122.327 106.907 122.101 106.907 121.651C106.907 121.2 106.794 120.975 106.569 120.975C106.363 120.975 106.231 120.764 106.231 120.435C106.231 120.139 106.078 119.838 105.892 119.766C105.706 119.695 105.554 119.481 105.554 119.292C105.554 119.102 105.452 118.947 105.328 118.947C105.204 118.947 105.103 118.69 105.103 118.376C105.103 118.062 104.951 117.747 104.765 117.676C104.578 117.605 104.426 117.304 104.426 117.007C104.426 116.678 104.294 116.468 104.088 116.468C103.838 116.468 103.75 116.207 103.75 115.47C103.75 114.883 103.61 114.333 103.411 114.134C103.13 113.854 103.073 112.931 103.073 108.71C103.073 105.469 102.991 103.624 102.847 103.624C102.723 103.624 102.622 103.472 102.622 103.286C102.622 103.1 102.723 102.948 102.847 102.948C103.155 102.948 103.135 101.879 102.826 101.776C102.677 101.727 102.529 100.71 102.455 99.2225C102.387 97.8633 102.243 96.6931 102.134 96.6221C102.025 96.5511 101.872 95.8161 101.795 94.9884C101.718 94.1608 101.581 93.4837 101.491 93.4837C101.401 93.4837 101.272 93.0634 101.203 92.5499C101.134 92.0363 100.983 91.5546 100.867 91.4795C100.752 91.4045 100.602 90.8394 100.534 90.2237C100.466 89.6081 100.299 89.0673 100.163 89.0218C100.027 88.9765 99.9154 88.6437 99.9154 88.2822C99.9154 87.8483 99.8003 87.6249 99.5771 87.6249C99.3328 87.6249 99.2387 87.3746 99.2387 86.7236C99.2387 86.0726 99.1447 85.8223 98.9004 85.8223C98.6875 85.8223 98.5621 85.6077 98.5621 85.2429C98.5621 84.9241 98.4099 84.5113 98.2238 84.3254C98.0377 84.1395 97.8855 83.7918 97.8855 83.5529C97.8855 83.3138 97.795 83.1182 97.6843 83.1182C97.5738 83.1182 97.4195 82.8647 97.3417 82.5549C97.2639 82.2451 97.1087 81.9916 96.9969 81.9916C96.8852 81.9916 96.7267 81.6874 96.645 81.3156C96.5634 80.9438 96.414 80.6396 96.3132 80.6396C96.2124 80.6396 96.0663 80.3861 95.9884 80.0762C95.9106 79.7664 95.7474 79.5129 95.6258 79.5129C95.504 79.5129 95.4045 79.3101 95.4045 79.0622C95.4045 78.8119 95.2541 78.6115 95.0662 78.6115C94.8558 78.6115 94.7279 78.3988 94.7279 78.0482C94.7279 77.6976 94.6 77.4849 94.3896 77.4849C94.2035 77.4849 94.0513 77.3328 94.0513 77.1469C94.0513 76.961 93.9498 76.8089 93.8257 76.8089C93.7017 76.8089 93.6002 76.6568 93.6002 76.4709C93.6002 76.285 93.4479 76.1329 93.2619 76.1329C93.0593 76.1329 92.9236 75.9251 92.9236 75.6153C92.9236 75.3167 92.6414 74.8638 92.2564 74.5449C91.8897 74.2409 91.5852 73.8655 91.5798 73.7105C91.5746 73.5557 91.4708 73.4288 91.349 73.4288C91.2275 73.4288 91.0642 73.1753 90.9864 72.8655C90.9086 72.5557 90.7035 72.3022 90.531 72.3022C90.3582 72.3022 90.217 72.1501 90.217 71.9642C90.217 71.7783 90.1083 71.6262 89.9755 71.6262C89.6631 71.6262 89.0893 71.0529 89.0893 70.7408C89.0893 70.6081 88.9339 70.4995 88.744 70.4995C88.5539 70.4995 88.3401 70.3474 88.2688 70.1615C87.8376 69.0389 87.7361 70.6694 87.7361 78.7242C87.7361 86.4857 87.6928 87.6249 87.3978 87.6249C87.1722 87.6249 87.0594 87.8503 87.0594 88.301C87.0594 88.7516 86.9467 88.977 86.7211 88.977C86.5351 88.977 86.3828 89.1291 86.3828 89.315C86.3828 89.5009 86.2732 89.653 86.1395 89.653C85.8226 89.653 83.9018 91.5719 83.9018 91.8885C83.9018 92.0221 83.7496 92.1316 83.5635 92.1316C83.3775 92.1316 83.2252 92.2837 83.2252 92.4697C83.2252 92.6556 83.1156 92.8077 82.9816 92.8077C82.6641 92.8077 80.0676 95.4017 80.0676 95.719C80.0676 95.8528 79.9154 95.9623 79.7293 95.9623C79.5432 95.9623 79.391 96.1144 79.391 96.3003C79.391 96.4862 79.2388 96.6384 79.0527 96.6384C78.8666 96.6384 78.7144 96.7905 78.7144 96.9764C78.7144 97.1623 78.5621 97.3144 78.3761 97.3144C78.19 97.3144 78.0377 97.4665 78.0377 97.6524C78.0377 97.8383 77.9283 97.9904 77.7948 97.9904C77.4793 97.9904 76.2334 99.2351 76.2334 99.5504C76.2334 99.6837 76.0812 99.793 75.8951 99.793C75.709 99.793 75.5568 99.9451 75.5568 100.131C75.5568 100.317 75.4045 100.469 75.2185 100.469C75.0324 100.469 74.8801 100.621 74.8801 100.807C74.8801 100.993 74.7279 101.145 74.5418 101.145C74.3558 101.145 74.2035 101.297 74.2035 101.483C74.2035 101.669 74.0513 101.821 73.8652 101.821C73.6791 101.821 73.5269 101.973 73.5269 102.159C73.5269 102.345 73.4175 102.497 73.284 102.497C72.9684 102.497 71.7225 103.742 71.7225 104.057C71.7225 104.19 71.5703 104.3 71.3842 104.3C71.1982 104.3 71.0459 104.452 71.0459 104.638C71.0459 104.824 70.8937 104.976 70.7076 104.976C70.5215 104.976 70.3693 105.128 70.3693 105.314C70.3693 105.5 70.2599 105.652 70.1264 105.652C69.7209 105.652 68.5977 106.908 68.4393 107.538C68.3575 107.864 68.2 108.13 68.0895 108.13C67.9788 108.13 67.8883 108.427 67.8883 108.79C67.8883 109.153 67.7361 109.602 67.55 109.788C67.3639 109.974 67.2117 110.387 67.2117 110.706C67.2117 111.071 67.0863 111.285 66.8734 111.285C66.6478 111.285 66.5351 111.51 66.5351 111.961C66.5351 112.412 66.4223 112.637 66.1968 112.637C66.0107 112.637 65.8584 112.789 65.8584 112.975C65.8584 113.161 65.7569 113.313 65.6329 113.313C65.5088 113.313 65.4074 113.457 65.4074 113.634C65.4074 113.81 65.1029 114.259 64.7307 114.63C64.3586 115.002 64.0541 115.416 64.0541 115.549C64.0541 115.683 63.9019 115.792 63.7158 115.792C63.5297 115.792 63.3775 115.944 63.3775 116.13C63.3775 116.316 63.2252 116.468 63.0392 116.468C62.8531 116.468 62.7008 116.62 62.7008 116.806C62.7008 116.996 62.4992 117.144 62.2389 117.144C61.985 117.144 61.5485 117.39 61.2691 117.692C60.9897 117.993 60.4869 118.308 60.152 118.392C59.8173 118.476 59.5432 118.635 59.5432 118.746C59.5432 118.856 59.2388 118.947 58.8666 118.947C58.4155 118.947 58.19 119.059 58.19 119.285C58.19 119.528 57.9405 119.623 57.2991 119.623C56.7181 119.623 56.3381 119.748 56.2068 119.982C56.0338 120.291 55.4136 120.341 51.7656 120.338C48.8915 120.336 47.4758 120.254 47.3703 120.083C47.2848 119.945 46.8177 119.768 46.3328 119.689C45.8476 119.61 45.3158 119.411 45.1507 119.246C44.9858 119.081 44.5535 118.947 44.1903 118.947C43.827 118.947 43.5297 118.845 43.5297 118.721C43.5297 118.597 43.3775 118.496 43.1914 118.496C43.0053 118.496 42.8531 118.344 42.8531 118.158C42.8531 117.948 42.6402 117.82 42.2892 117.82C41.9383 117.82 41.7254 117.692 41.7254 117.482C41.7254 117.296 41.57 117.144 41.3801 117.144C41.1899 117.144 40.9761 116.992 40.9049 116.806C40.8334 116.62 40.6335 116.468 40.4608 116.468C40.288 116.468 40.1466 116.359 40.1466 116.227C40.1466 115.914 39.5728 115.341 39.2604 115.341C39.1276 115.341 39.0189 115.24 39.0189 115.116C39.0189 114.824 38.1837 113.989 37.8912 113.989C37.7671 113.989 37.6656 113.837 37.6656 113.651C37.6656 113.465 37.5722 113.313 37.4579 113.313C37.3438 113.313 37.1834 113.009 37.1018 112.637C37.0201 112.265 36.8679 111.961 36.7634 111.961C36.659 111.961 36.5068 111.657 36.4251 111.285C36.3435 110.913 36.196 110.609 36.0976 110.609C35.9993 110.609 35.8541 110.204 35.7747 109.708C35.6953 109.212 35.5302 108.806 35.4075 108.806C35.285 108.806 35.1846 108.401 35.1846 107.905C35.1846 107.254 35.0906 107.004 34.8463 107.004C34.6603 107.004 34.508 106.852 34.508 106.666C34.508 106.48 34.3558 106.328 34.1697 106.328C33.9836 106.328 33.8314 106.176 33.8314 105.99C33.8314 105.804 33.6791 105.652 33.4931 105.652C33.307 105.652 33.1548 105.5 33.1548 105.314C33.1548 105.128 33.0025 104.976 32.8164 104.976C32.6304 104.976 32.4781 104.865 32.4781 104.73C32.4781 104.431 30.5175 102.497 30.2141 102.497C30.0948 102.497 29.9972 102.345 29.9972 102.159C29.9972 101.973 29.8449 101.821 29.6589 101.821C29.4728 101.821 29.3205 101.669 29.3205 101.483C29.3205 101.297 29.1683 101.145 28.9822 101.145C28.7962 101.145 28.6439 101.036 28.6439 100.902C28.6439 100.587 27.398 99.3424 27.0825 99.3424C26.949 99.3424 26.8396 99.241 26.8396 99.117C26.8396 98.9931 26.6366 98.6889 26.3885 98.441C26.1404 98.1932 25.8359 97.9904 25.7119 97.9904C25.5878 97.9904 25.4863 97.8383 25.4863 97.6524C25.4863 97.4665 25.3341 97.3144 25.148 97.3144C24.9619 97.3144 24.8097 97.1623 24.8097 96.9764C24.8097 96.7905 24.6574 96.6384 24.4714 96.6384C24.2853 96.6384 24.1331 96.5297 24.1331 96.397C24.1331 96.0849 23.5593 95.5117 23.2469 95.5117C23.1141 95.5117 23.0053 95.3596 23.0053 95.1737C23.0053 94.9878 22.8531 94.8357 22.667 94.8357C22.481 94.8357 22.3287 94.6836 22.3287 94.4977C22.3287 94.3118 22.1765 94.1597 21.9904 94.1597C21.8043 94.1597 21.6521 94.0583 21.6521 93.9343C21.6521 93.8104 21.4491 93.5062 21.201 93.2583C20.9529 93.0105 20.6484 92.8077 20.5244 92.8077C20.4003 92.8077 20.2988 92.6984 20.2988 92.565C20.2988 92.2497 19.0529 91.005 18.7374 91.005C18.6039 91.005 18.4945 90.8529 18.4945 90.667C18.4945 90.4811 18.3423 90.329 18.1562 90.329C17.9701 90.329 17.8179 90.1769 17.8179 89.991C17.8179 89.8051 17.6656 89.653 17.4796 89.653C17.2935 89.653 17.1412 89.5468 17.1412 89.4168C17.1412 89.287 16.8886 88.947 16.5799 88.661L16.0187 88.1414L15.9596 78.9448C15.922 73.0509 15.8198 69.7281 15.6752 69.6919C15.5512 69.661 15.2981 69.6946 15.1129 69.7667ZM49.9888 97.6524C49.913 97.85 49.5749 97.9904 49.1753 97.9904C48.7993 97.9904 48.4917 98.0897 48.4917 98.2114C48.4917 98.3329 48.2379 98.496 47.9278 98.5738C47.6177 98.6515 47.3639 98.8563 47.3639 99.0287C47.3639 99.2013 47.2645 99.3424 47.1427 99.3424C47.0211 99.3424 46.8578 99.5959 46.78 99.9057C46.7022 100.216 46.4972 100.469 46.3246 100.469C46.1282 100.469 46.0107 100.715 46.0107 101.126C46.0107 101.488 45.8948 101.822 45.7531 101.869C45.4207 101.98 45.3756 105.17 45.7033 105.384C45.8341 105.469 46.0096 105.818 46.093 106.159C46.1765 106.5 46.3445 106.778 46.4661 106.778C46.5879 106.778 46.6873 106.931 46.6873 107.116C46.6873 107.302 46.8396 107.454 47.0256 107.454C47.2117 107.454 47.3639 107.607 47.3639 107.792C47.3639 107.978 47.5162 108.13 47.7023 108.13C47.8883 108.13 48.0406 108.283 48.0406 108.468C48.0406 108.694 48.2661 108.806 48.7172 108.806C49.1683 108.806 49.3938 108.919 49.3938 109.144C49.3938 109.424 49.8199 109.482 51.8748 109.482C53.9297 109.482 54.3558 109.424 54.3558 109.144C54.3558 108.959 54.508 108.806 54.6941 108.806C54.8802 108.806 55.0324 108.707 55.0324 108.585C55.0324 108.464 55.2861 108.301 55.5963 108.223C55.9064 108.145 56.1601 107.94 56.1601 107.766C56.1601 107.592 56.3631 107.276 56.6112 107.064C56.8593 106.852 57.0623 106.549 57.0623 106.39C57.0623 106.232 57.1638 106.102 57.2878 106.102C57.4245 106.102 57.5134 105.126 57.5134 103.624C57.5134 102.26 57.4229 101.145 57.3122 101.145C57.2017 101.145 57.0442 100.878 56.9624 100.553C56.804 99.9222 55.6808 98.6664 55.2753 98.6664C55.1418 98.6664 55.0324 98.5143 55.0324 98.3284C55.0324 98.1048 54.8087 97.9904 54.3718 97.9904C54.0087 97.9904 53.5592 97.8383 53.3731 97.6524C53.1421 97.4216 52.572 97.3144 51.5766 97.3144C50.4888 97.3144 50.0858 97.4002 49.9888 97.6524Z" fill="#E8E8E8"/>
</svg>
